<?xml version="1.0" encoding="UTF-8"?>
<svg id="Layer_2" data-name="Layer 2" xmlns="http://www.w3.org/2000/svg" viewBox="0 0 712.49 560.9">
  <g>
    <path d="M347.14,19.82c36.49,0,58.89,30.05,58.89,62.8s-17.66,57.23-42.08,75.69c-.39.3-.51.83-.28,1.26l.5.93c.17.33.51.53.88.53h56.67c.37,0,.71-.21.89-.54l11.51-21.93c.35-.67-.13-1.46-.89-1.46h-3.91c-.33,0-.64.17-.83.44l-7.39,11c-.19.28-.5.44-.83.44h-29.17c20.55-14.6,37.69-37.51,37.69-65.68,0-44.98-40.58-71.11-81.64-71.11s-81.63,26.14-81.63,71.11c0,28.17,17.13,51.08,37.67,65.68h-29.17c-.33,0-.64-.17-.83-.44l-7.37-10.99c-.19-.28-.5-.44-.83-.44h-3.93c-.75,0-1.24.8-.89,1.46l11.52,21.93c.17.33.51.54.89.54h56.67c.37,0,.71-.2.88-.52l.5-.93c.23-.43.12-.97-.28-1.27-24.42-18.47-42.09-44.08-42.09-75.69s22.4-62.8,58.9-62.8M41.3,256.07c0,35.77,30.61,64.65,66.98,61.75,30.09-2.4,54.31-26.61,56.73-56.7,2.92-36.38-25.97-67-61.75-67s-61.95,27.83-61.95,61.94M188.32,314.77l22.19-71.26,31.5,73.23c.35.81,1.49.81,1.84,0l31.5-73.23,22.18,71.26c.13.42.52.7.95.7h16.58c.68,0,1.16-.66.95-1.3l-37.31-118.32c-.28-.88-1.51-.95-1.87-.09l-33.9,78.99-33.9-78.99c-.37-.85-1.59-.79-1.87.09l-37.3,118.32c-.2.64.28,1.3.95,1.3h16.56c.44,0,.82-.28.95-.7ZM147.38,256.07c0,24.95-19.35,44.64-44.13,44.64s-44.13-19.69-44.13-44.64,19.35-44.64,44.13-44.64,44.13,19.69,44.13,44.64M564.15,314.92l12.11-23.9h63.14l12.11,23.9c.17.34.52.55.89.55h17.78c.75,0,1.23-.79.89-1.45l-62.36-122.39c-.37-.73-1.41-.73-1.78,0l-62.35,122.39c-.34.67.14,1.45.89,1.45h17.78c.38,0,.72-.21.89-.55ZM483.6,211.43c-24.78,0-44.13,19.69-44.13,44.64s19.35,44.64,44.13,44.64c19.73,0,36.86-12.79,42.24-30.47.19-.64-.3-1.28-.96-1.28h-39.25c-.55,0-1-.45-1-1v-15.31c0-.55.45-1,1-1h58.85c.53,0,.96.41,1,.94.08,1.1.08,2.29.08,3.47,0,35.78-30.63,64.66-67,61.75-30.08-2.41-54.29-26.63-56.69-56.71-2.9-36.37,25.96-66.98,61.74-66.98,20.52,0,38.73,10,49.99,25.48.33.45.22,1.08-.23,1.41l-12.61,9.02c-.45.32-1.07.21-1.39-.24-7.87-11.08-20.85-18.36-35.75-18.36M331.7,197.67v116.8c0,.55.45,1,1,1h70.13c.55,0,1-.45,1-1v-15.31c0-.55-.45-1-1-1h-53.32v-33.6h51.62c.55,0,1-.45,1-1v-15.31c0-.55-.45-1-1-1h-51.62v-33.26h53.32c.55,0,1-.45,1-1v-15.31c0-.55-.45-1-1-1h-70.13c-.55,0-1,.45-1,1ZM607.83,229.08l22.75,44.64h-45.48l22.74-44.64Z"/>
    <g>
      <g>
        <path d="M98,461.51c-1.03-.02-2.08-.05-3.16-.1-21.41-1.07-31.83-8.81-36.81-15.12-5.3-6.74-7.32-15.24-5.67-23.94.52-2.76,2.93-4.73,5.73-4.69.33,0,.67.04.99.1,1.51.28,2.82,1.14,3.69,2.41.87,1.27,1.19,2.8.9,4.31-.59,3.12-.93,9.17,3.41,14.68,5.01,6.36,14.8,10.07,28.33,10.75.87.04,1.72.07,2.57.08,13.02.19,23.51-3.2,29.53-9.55,4-4.22,5.11-8.78,4.81-11.65-.54-5.16-3.65-11.06-22.67-15.71-15.22-3.72-25.35-9.6-30.12-17.49-3.14-5.2-3.93-11.06-2.35-17.43,4.2-16.92,28.17-24.3,48.68-24,5.97.09,11.79.78,17.3,2.04,22.72,5.22,27.32,22.27,26.58,30.56-.27,2.98-2.84,5.28-5.85,5.24-.13,0-.27,0-.4-.02-3.13-.28-5.48-3.06-5.22-6.19.09-1.44.4-14.21-17.69-18.36-4.64-1.07-9.57-1.64-14.65-1.72-18.88-.28-35.39,6.41-37.58,15.23-.83,3.34-.49,6.18,1.03,8.7,3.08,5.1,11.04,9.34,23,12.26,13.72,3.35,29.69,9.31,31.39,25.7.73,7.01-2.23,14.77-7.9,20.76-5.85,6.17-17.16,13.46-37.87,13.15Z"/>
        <path d="M125.85,354.29c5.84.09,11.71.76,17.28,2.04,22.64,5.2,27.22,22.17,26.48,30.42-.27,2.97-2.78,5.17-5.72,5.12-.13,0-.26,0-.39-.02-3.08-.28-5.36-2.98-5.11-6.06.1-1.49.39-14.32-17.78-18.49-4.79-1.1-9.77-1.65-14.68-1.72-18.21-.27-35.4,6.04-37.7,15.32-.84,3.37-.49,6.25,1.05,8.79,3.1,5.13,11.08,9.39,23.08,12.32,13.68,3.34,29.6,9.28,31.29,25.6.72,6.97-2.22,14.69-7.87,20.66-5.92,6.24-17.22,13.42-37.78,13.11-1.03-.02-2.08-.05-3.16-.1-21.37-1.06-31.76-8.79-36.71-15.08-5.28-6.71-7.29-15.17-5.65-23.84.52-2.73,2.93-4.62,5.61-4.59.32,0,.65.04.97.1,3.06.58,5.06,3.52,4.49,6.58-.59,3.14-.94,9.23,3.43,14.78,5.03,6.39,14.86,10.12,28.43,10.8.87.04,1.73.07,2.57.08,13.07.19,23.53-3.16,29.63-9.59,4.03-4.25,5.14-8.85,4.84-11.75-.54-5.2-3.67-11.15-22.77-15.82-15.18-3.71-25.29-9.58-30.04-17.43-3.12-5.17-3.91-11-2.34-17.33,3.94-15.89,26.09-24.23,48.55-23.9M125.86,354.04c-20.55-.3-44.59,7.11-48.8,24.09-1.59,6.4-.79,12.3,2.37,17.52,4.79,7.91,14.95,13.82,30.19,17.54,18.95,4.63,22.05,10.49,22.58,15.6.29,2.84-.81,7.36-4.78,11.55-6,6.33-16.45,9.71-29.44,9.52-.84-.01-1.71-.04-2.57-.08-13.49-.67-23.26-4.37-28.24-10.7-4.31-5.47-3.97-11.48-3.38-14.58.29-1.54-.03-3.11-.92-4.41s-2.22-2.17-3.77-2.46c-.33-.06-.68-.1-1.02-.1-2.86-.04-5.32,1.97-5.86,4.79-1.65,8.74.37,17.27,5.7,24.04,4.99,6.33,15.44,14.1,36.9,15.17,1.05.05,2.11.09,3.17.1,20.75.31,32.1-7,37.96-13.19,5.7-6.02,8.67-13.81,7.94-20.85-1.71-16.48-17.72-22.45-31.48-25.81-11.93-2.92-19.86-7.14-22.92-12.2-1.5-2.49-1.84-5.3-1.02-8.61,2.17-8.76,18.63-15.41,37.46-15.13,5.07.07,9.99.65,14.62,1.71,17.98,4.13,17.68,16.8,17.59,18.23-.26,3.2,2.14,6.04,5.34,6.32.14.01.27.02.41.02,3.08.05,5.7-2.31,5.98-5.35.75-8.32-3.87-25.45-26.67-30.69-5.52-1.27-11.35-1.96-17.33-2.04h0Z"/>
      </g>
      <g>
        <path d="M245.93,440.43c-5.57-.08-10.76-1.9-14.23-5-2.83-2.68-4.58-6.09-5.2-10.15-1.9,1.38-3.65,2.6-5.35,3.7-5.76,3.53-13.53,7.74-22.64,8.97-1.74.26-3.48.38-5.16.36-9.33-.14-17.36-4.87-21.5-12.66-4.7,2.56-9.95,4.76-16.03,6.73-.41.12-.81.18-1.21.18-1.58-.02-2.98-1.12-3.49-2.72-.5-1.58,0-3.17,1.34-4.15,6.02-4.24,11.41-7.59,16.5-10.25-.32-4.46.42-8.99,2.2-13.46,3.27-7.95,10.53-14.54,19.43-17.64,4.22-1.57,8.95-2.4,13.33-2.34,5.39.08,14.93,1.65,18.37,11.25,1.63,4.44.79,10.65-3.98,13.4-12.94,8.16-23.83,13.99-34.24,18.31,1.27,1.09,2.73,1.91,4.33,2.45,2.05.6,4.22.92,6.44.95,11.12.16,22.38-6.75,31.42-12.3.18-.12.38-.22.59-.31.67-3.55,1.86-7.39,3.76-12.07,3.36-7.52,8.39-13.72,14.55-17.94,2.49-1.62,4.71-2.74,6.61-3.32,1.38-.46,2.85-.68,4.36-.66,4.54.07,9.61,2.41,13.56,6.26,1.28,1.25,2.43,2.66,3.4,4.22,1.99-2.89,3.91-5.32,5.87-7.42.75-.8,1.8-1.25,2.89-1.23.97.01,1.89.39,2.59,1.05,1.17,1.09,1.55,2.75.97,4.24-2.26,5.63-5.25,10.89-8.14,15.98-2.53,4.46-5.15,9.08-7.24,13.87l-.39.94c-1.38,3.29-2.57,6.15-2.65,9.08,2.79-.16,5.83-1.7,8.51-3.07l.81-.41c4.97-2.69,9.98-6.03,14.83-9.27l.61-.41c1.11-2.2,2.65-5.16,4.3-8.1l1.55-2.73c4.03-7.11,8.2-14.46,13.65-20.9.74-.86,1.81-1.34,2.94-1.32.89.01,1.75.34,2.42.92,1.23,1.06,1.65,2.78,1.05,4.28-.13.33-.26.66-.4.98l-.08.2c5.68-3.03,13.67-6.54,20.13-6.45,3.97.06,6.86,1.49,8.58,4.26.31.51.54,1.09.71,1.79,7.34-4.52,14.25-6.97,19.47-6.89,1.84.03,3.51.36,4.96.99,2.88,1.21,5.06,4.84,4.77,7.91-.26,3.19-.99,5.11-1.91,7.54-.17.44-.34.89-.51,1.37-1.42,3.77-3.19,7.52-4.91,11.13-2.71,5.72-5.52,11.64-6.89,17.7,1.92-.46,3.92-1.34,5.87-2.19l.85-.37c3.04-1.4,6.09-2.91,9.04-4.37,3.01-1.5,6.13-3.04,9.27-4.49.15-1.05.34-2,.55-2.91,1.84-7.42,5.51-14.72,10.62-21.12,4.82-6.14,12.78-10.19,19.81-10.09,4.78.07,9,1.99,12.2,5.54,1.23,1.37,2.26,2.99,3.08,4.82,2.5-3.56,5.02-6.52,7.7-9.04.73-.69,1.7-1.07,2.71-1.05s2.04.45,2.76,1.22c1.12,1.19,1.37,2.97.62,4.42-1.89,3.64-4,7.25-6.03,10.75-4.74,8.15-9.63,16.59-12.23,25.8-.04.16-.08.31-.13.47,1.66-1.21,3.28-2.69,4.85-4.13l.83-.76c2.94-2.82,6.11-5.89,9.43-9.1,13.29-12.86,28.36-27.44,40.46-37.62.73-.59,1.57-.9,2.42-.89,1.43.02,2.81.95,3.44,2.31.6,1.32.38,2.75-.6,3.93-1.23,1.43-2.52,2.84-3.77,4.21-.66.72-1.31,1.44-1.97,2.16l-.29.31,1.06,1.37c2.21,2.83,4.31,5.51,6.08,8.81,1.6,3.24,2.55,6.84,3.08,11.67.11,1.04.18,2.12.23,3.31,1.03-.63,2.06-1.24,3.08-1.84,2.72-1.6,5.29-3.11,7.78-5,.74-.54,1.47-1.09,2.2-1.64l1.41-1.05c3.85-7.07,8-13.92,11.9-20.26.23-.35.45-.69.66-1.04l.24-.37-9.14-.31c-2.22-.09-3.43-1.74-3.65-3.33-.22-1.59.5-3.51,2.61-4.19,4.87-1.4,10.23-2.08,16.38-2.07,3.95-6.31,7.47-11.49,11.8-16.27.77-.82,1.73-1.25,2.8-1.23,1.31.02,2.58.72,3.32,1.82.69,1.04.81,2.28.33,3.48-1.85,4.67-4.27,8.93-6.63,12.83,1.09.1,2.18.21,3.26.32,2.76.34,6.41.85,10.17,1.74.98.23,1.82.84,2.35,1.7.53.86.69,1.88.46,2.86-.39,1.65-1.84,2.85-3.53,2.91-3.43.18-6.98.19-10.04.17-1.2,0-2.5-.01-3.86-.03-1.48-.02-3.04-.05-4.61-.09-7.18,11.85-14.11,23.46-20.05,35.15-2.26,4.63-4.54,9.53-5.44,14.07.58-.24,1.16-.49,1.71-.73l.74-.32c6.18-2.83,12.52-6.06,18.65-9.19,2.49-1.27,4.99-2.55,7.5-3.8-.03-12.59,8.23-25.09,19.68-29.75,4.32-1.82,9.78-2.82,15-2.74,5.74.08,19.26,1.71,20.76,14.94.17,2.88-.93,5.81-2.87,7.65-3.31,3.08-7.23,5.42-11.03,7.68-.66.39-1.32.78-1.97,1.18-8.43,4.9-16.23,8.81-23.85,11.95,2.95,2.35,7.01,3.63,11.75,3.7.67,0,1.36,0,2.05-.04,12.74-.66,25.09-6.52,32.24-15.29,9.58-12.03,17.45-25.74,25.06-38.99l.56-.97c.71-1.26,1.9-1.97,3.24-1.95s2.56.71,3.26,1.79c.67,1.03.74,2.28.2,3.52-1.03,2.2-2.08,4.37-3.14,6.54,4.08,2.17,7.92,5.01,11.64,7.75.8.59,1.6,1.18,2.39,1.76,1.37,1.08,3.07,2.52,4.11,4.15.92,1.51,1.22,3.4.77,4.95-.66,2.27-2.28,4.79-3.72,7.02-.59.92-1.15,1.78-1.61,2.58-.64,1.11-1.34,2.23-2.04,3.38-2.7,4.37-5.49,8.88-5.94,13.51.71-.08,1.66-.3,2.43-.57,3-1.05,5.98-2.43,9.13-3.88,3.83-1.76,7.78-3.58,11.81-4.8.42-.12.84-.19,1.24-.18,1.92.03,3.15,1.47,3.51,2.89.34,1.33.05,3.12-1.78,4.17-2.22,1.23-4.38,2.54-6.47,3.82-4.36,2.66-8.88,5.4-14.1,7.46-2.15.76-4.12,1.38-6.55,1.34h0c-.49,0-1-.04-1.52-.1-4.32-.41-7.51-4.53-7.98-8.1-.69-5.48.98-9.18,2.91-13.46l.32-.71c2.15-4.45,4.83-8.62,7.43-12.66.55-.85,1.09-1.7,1.63-2.54-1.68-1.47-3.56-2.87-5.38-4.23-2.18-1.62-4.43-3.3-6.45-5.17-4.93,9.4-9.83,17.48-14.99,24.71-3.53,5.05-7.34,9.03-11.31,11.83-10.02,7.03-21.87,10.98-32.5,10.82-5.49-.08-10.58-1.24-15.11-3.46-5.46-2.95-9.38-7.41-11.35-12.89-8.25,5.4-15.9,9.83-23.38,13.52-.6.25-1.24.55-1.92.86-2.63,1.22-5.61,2.6-8.38,2.55-2.13-.03-3.78-.9-5.05-2.64-3.45-5.81-1.44-13.05.47-18.12-2.43,1.47-4.72,2.86-6.88,4.4-.42.4-.93.76-1.51,1.07l-.04.15c-3.88,7.91-12.23,13.32-21.79,14.11-.52.03-1.03.04-1.54.03-6.24-.09-12.66-2.71-19.1-7.77-1.27-1.08-1.69-2.62-1.13-4.13.58-1.55,2.02-2.58,3.57-2.56.6,0,1.19.17,1.77.48,5.84,2.7,10.39,4.03,13.89,4.08.93.01,1.79-.07,2.56-.24,9.2-1.63,14.68-8.92,13.98-18.59-.28-4.85-.83-9.94-4.18-14.17-.79-1.03-1.7-2.49-2.44-3.92-11.02,11.52-22.55,22.91-33.69,33.94l-1.33,1.31c-.74.64-1.47,1.32-2.21,2.01-3.98,3.68-8.1,7.49-14.02,7.52-2.17-.04-4.41-1.16-6.01-3-4.01,3.26-8.99,5.01-14.06,4.94-9.01-.13-16.09-5.64-18.09-14.04-2.37,1.53-4.93,3.17-7.62,4.78-4.58,2.7-8.9,5.25-14.23,7.06-1.12.38-3.33,1.01-5.63.98-1.16-.02-2.21-.2-3.12-.55-2.87-.95-5.12-4.07-5.25-7.27-.24-2.57.36-5.28.91-7.34,1.94-6.7,4.76-12.85,7.48-18.81,1.38-3.02,2.81-6.14,4.1-9.27.54-1.33.95-2.46,1.25-3.38-5.86.96-11.44,3.91-16.83,6.77-1.55.82-3.16,1.68-4.75,2.46-5.6,11.94-12.67,23.55-21.55,35.43-.73.95-1.84,1.49-3.04,1.47-.82-.01-1.59-.28-2.24-.78-1.42-1.09-1.87-3.05-1.08-4.65,3.07-6.4,6.47-12.75,9.77-18.88l.56-1.04c.86-1.67,1.76-3.35,2.66-5.04,2.55-4.76,5.18-9.68,7-14.69-2.27.33-4.72,1.21-6.89,1.99l-.69.25c-3.25,1.27-6.41,2.74-9.76,4.3-2.47,1.15-5.03,2.34-7.62,3.44l-4.93,9.4c-1.45,2.79-2.97,5.6-4.44,8.31-.7,1.29-1.39,2.58-2.09,3.87-.61,1.02-1.2,2.17-1.83,3.39-1.54,2.99-3.28,6.38-5.71,8.34-.72.65-1.63.99-2.62.98-1.19-.02-2.38-.56-3.19-1.45-.74-.81-1.09-1.83-1.01-2.89,0-.35.04-.72.11-1.19-7.21,4.9-13.33,7.35-18.2,7.28-2.7-.04-5.01-.87-6.87-2.48-3.7,2.48-8.52,3.8-13.59,3.72ZM256.24,391.79c-.3,0-.6,0-.89.04-.5.11-1.56.62-2.07.87-5.36,2.95-9.84,8.21-12.98,15.23-1.76,4.48-4.02,11.09-3.2,16.62,1.01,3.68,4.07,5.59,9.1,5.66,3.97.06,8.03-1.07,10.15-1.78.03-7.47,5.03-16.47,8.34-22.44.43-.77.83-1.49,1.18-2.14l1.91-3.22c-1.76-4.65-7.13-8.78-11.54-8.84ZM417.75,392.59c-5.3-.08-10.92,4.62-13.73,9.29-1.49,2.34-8.81,14.37-6.71,21.96.59,2.15,1.91,3.74,3.92,4.75,1.51.71,2.96,1.07,4.43,1.09,4.76.07,8.65-3.49,12.41-6.94.71-2.66,1.79-5.32,2.84-7.88l.48-1.18c1.58-3.6,3.41-7.22,5.6-11.1-.7-3.41-2.08-6.25-3.88-7.9-1.56-1.36-3.37-2.07-5.36-2.1ZM203.49,392.62c-7.44.12-14.62,3.18-19.19,8.16-3.59,3.92-5.3,8.75-4.94,13.97.02.96.13,1.91.34,2.85,5.02-3.36,10.39-6.38,15.59-9.3,5.78-3.25,11.77-6.61,17.2-10.42,0-.03,0-.06,0-.1-.44-3.4-3.26-5.09-8.61-5.17h-.38ZM570.41,393.48c-5.98-.09-11.99,1.88-15.68,5.13-6.67,5.92-9.67,14.14-7.68,20.98,4.82-3.09,9.82-5.99,14.67-8.79,4.88-2.83,9.93-5.76,14.74-8.85,1.6-1.04,3.62-2.49,4.59-3.4-.12-1.52-1.34-2.81-3.62-3.85-2.02-.76-4.45-1.18-7.02-1.22Z"/>
        <path d="M541.58,352.77c2.38.04,4.62,2.41,3.53,5.13-1.82,4.6-4.21,8.83-6.72,12.98,1.15.11,2.31.22,3.46.34,3.4.42,6.76.93,10.16,1.74,1.97.47,3.18,2.44,2.72,4.41-.39,1.63-1.82,2.75-3.42,2.81-3.33.18-6.7.19-10.03.17-1.21,0-2.52-.01-3.9-.03-1.49-.02-3.06-.05-4.64-.09-7.02,11.59-14.06,23.36-20.09,35.22-2.17,4.45-4.54,9.47-5.46,14.12-.01.07-.02.13-.03.2.91-.38,1.82-.78,2.65-1.13,8.68-3.97,17.43-8.62,26.22-13.03-.07-12.07,7.67-24.86,19.6-29.71,4.12-1.74,9.56-2.81,14.95-2.73,9.8.14,19.42,4.1,20.64,14.83.16,2.68-.82,5.64-2.83,7.54-3.87,3.6-8.53,6.16-12.98,8.84-7.81,4.54-15.73,8.61-24.03,12.02,2.82,2.32,6.81,3.79,11.99,3.87.67,0,1.35,0,2.06-.04,11.87-.62,24.66-5.92,32.33-15.34,9.82-12.33,17.78-26.31,25.63-39.98.77-1.35,1.96-1.9,3.13-1.88,2.32.03,4.58,2.31,3.35,5.14-1.04,2.23-2.11,4.44-3.19,6.65,5,2.64,9.63,6.28,14.13,9.56,1.3,1.02,3.03,2.47,4.07,4.12.84,1.37,1.22,3.22.75,4.85-.92,3.17-3.73,6.81-5.32,9.57-3.07,5.32-7.5,11.14-8.01,17.09.79-.07,1.84-.33,2.61-.6,6.74-2.37,13.69-6.49,20.93-8.68.42-.13.82-.18,1.2-.17,3.39.05,5.04,4.89,1.67,6.83-6.87,3.8-12.85,8.23-20.55,11.27-2.15.76-4.1,1.37-6.5,1.33-.48,0-.98-.04-1.5-.1-4.05-.39-7.38-4.27-7.87-7.99-.73-5.75,1.17-9.55,3.22-14.11,2.6-5.37,5.95-10.3,9.06-15.2.01-.02.03-.05.04-.07-3.72-3.27-8.27-6.07-12.03-9.58-4.49,8.57-9.39,16.9-15.06,24.83-3.1,4.43-6.87,8.69-11.28,11.8-9.02,6.33-20.91,10.97-32.43,10.8-5.19-.08-10.31-1.13-15.06-3.45-5.86-3.17-9.51-7.78-11.34-12.97-7.57,4.96-15.26,9.53-23.5,13.6-2.87,1.21-6.78,3.46-10.24,3.41-1.86-.03-3.59-.72-4.96-2.59-3.22-5.43-1.75-12.17.62-18.34-2.48,1.51-4.94,2.99-7.2,4.59-.45.43-.96.77-1.5,1.06-.03.07-.06.13-.09.2-4.04,8.23-12.75,13.3-21.69,14.04-.51.03-1.02.04-1.53.03-7.06-.1-13.56-3.44-19.02-7.74-2.83-2.4-.69-6.51,2.36-6.46.55,0,1.13.15,1.71.46,4.55,2.1,9.72,4.04,13.95,4.1.91.01,1.78-.06,2.59-.24,9.45-1.67,14.77-9.25,14.08-18.72-.29-5.09-.91-10.07-4.21-14.24-.71-.93-1.66-2.4-2.51-4.05-11.48,12.01-23.29,23.66-35.14,35.37-4.56,3.98-9.15,9.46-16.14,9.49-2.26-.04-4.5-1.29-5.99-3.05-4.2,3.45-9.23,5.06-14.07,4.98-8.25-.12-15.95-5.12-18.01-14.12-2.55,1.65-5.12,3.29-7.77,4.87-4.61,2.72-8.92,5.25-14.2,7.05-1.55.53-3.59,1-5.59.97-1.06-.02-2.11-.17-3.08-.54-2.88-.95-5.05-4.12-5.17-7.16-.23-2.48.32-5.12.91-7.31,2.92-10.09,7.75-18.76,11.57-28.07.39-.98.93-2.37,1.31-3.59-7.66,1.19-14.69,5.74-21.81,9.28-5.96,12.62-13.24,24.28-21.59,35.47-.73.95-1.83,1.43-2.94,1.42-.76-.01-1.52-.26-2.17-.76-1.4-1.08-1.8-2.97-1.05-4.49,3.24-6.76,6.81-13.36,10.33-19.92,3.33-6.5,7.29-13.1,9.73-19.94-2.58.33-5.42,1.42-7.82,2.27-5.74,2.25-11.4,5.21-17.38,7.75l-5,9.46c-2.13,4.08-4.35,8.12-6.53,12.18-2.15,3.56-4.15,8.96-7.51,11.69-.75.68-1.65.96-2.54.95-2.15-.03-4.27-1.82-4.08-4.2.01-.48.07-.97.16-1.46-6.06,4.15-12.75,7.51-18.36,7.42-2.56-.04-4.9-.79-6.86-2.51-3.8,2.57-8.72,3.83-13.6,3.76-5.29-.08-10.51-1.72-14.15-4.97-3.12-2.95-4.65-6.49-5.18-10.28-1.8,1.32-3.63,2.59-5.52,3.82-6.92,4.24-14.31,7.83-22.59,8.95-1.77.27-3.49.38-5.14.36-9.86-.14-17.53-5.23-21.45-12.71-5.12,2.8-10.55,4.98-16.12,6.78-.4.12-.8.18-1.17.17-3.22-.05-5-4.51-2.08-6.65,5.3-3.74,10.8-7.28,16.55-10.28-.32-4.28.34-8.87,2.18-13.49,3.45-8.39,11-14.66,19.35-17.57,3.95-1.47,8.68-2.4,13.29-2.33,7.84.12,15.37,3.1,18.25,11.17,1.67,4.54.67,10.6-3.93,13.25-11.06,6.97-22.36,13.39-34.41,18.38,1.29,1.14,2.81,2.03,4.52,2.6,2.15.63,4.31.93,6.48.96,11.06.16,22.22-6.63,31.49-12.32.2-.13.42-.24.64-.33.79-4.23,2.27-8.42,3.76-12.12,3.14-7.03,8.05-13.47,14.51-17.88,1.97-1.29,4.32-2.61,6.58-3.3,1.42-.47,2.88-.67,4.33-.65,5.03.07,9.99,2.83,13.47,6.22,1.32,1.29,2.49,2.75,3.48,4.35,1.81-2.64,3.75-5.19,5.97-7.56.75-.81,1.78-1.21,2.8-1.19.9.01,1.8.35,2.51,1.01,1.15,1.08,1.48,2.71.94,4.1-4.24,10.56-10.92,19.59-15.37,29.85-1.53,3.69-3,6.91-3.05,10.19,3.14-.13,6.59-2.03,9.5-3.5,5.18-2.81,10.28-6.23,15.45-9.68,1.4-2.74,2.83-5.46,4.34-8.14,4.66-8.16,9.06-16.38,15.19-23.61.74-.86,1.79-1.29,2.84-1.28.83.01,1.66.31,2.34.89,1.22,1.05,1.58,2.73,1.02,4.14-.19.51-.41,1.01-.61,1.51,6.67-3.6,14.36-6.69,20.38-6.6,3.62.05,6.64,1.26,8.47,4.2.37.61.58,1.26.73,1.93,6.18-3.83,13.48-7.05,19.55-6.96,1.76.03,3.42.33,4.92.98,2.78,1.17,4.98,4.75,4.69,7.79-.31,3.76-1.28,5.79-2.41,8.87-3.68,9.83-9.65,19.09-11.84,29.04,2.27-.52,4.67-1.63,6.93-2.61,6.17-2.83,12.12-6.02,18.38-8.89.14-.96.31-1.95.56-2.96,1.91-7.71,5.66-14.88,10.59-21.07,4.56-5.81,12.3-10.15,19.72-10.04,4.4.06,8.68,1.69,12.11,5.5,1.36,1.52,2.37,3.21,3.15,4.99,2.3-3.3,4.85-6.42,7.81-9.2.74-.69,1.68-1.03,2.62-1.02s1.95.41,2.67,1.18c1.12,1.19,1.31,2.91.6,4.28-6.32,12.12-14.55,23.39-18.27,36.58-.07.26-.14.54-.21.81,2.06-1.45,4.06-3.36,5.97-5.1,14.49-13.9,34.71-33.95,49.88-46.71.76-.61,1.57-.87,2.34-.86,2.72.04,4.96,3.39,2.74,6.03-1.87,2.16-3.82,4.25-5.73,6.37-.12.13-.25.26-.37.39,2.56,3.31,5.13,6.38,7.2,10.24,1.83,3.69,2.63,7.62,3.07,11.63.12,1.17.2,2.34.24,3.51,3.79-2.32,7.54-4.29,11.06-6.95,1.2-.88,2.39-1.79,3.61-2.7,3.77-6.9,7.81-13.59,11.93-20.29.34-.53.68-1.06,1.02-1.6-1.83-.06-9.19-.32-9.19-.32h-.17c-4.16-.18-4.93-6-1.01-7.28,5.42-1.56,10.91-2.08,16.41-2.07,3.56-5.69,7.27-11.28,11.82-16.31.79-.85,1.76-1.21,2.7-1.19M546.98,419.79c9.73-6.24,19.92-11.55,29.55-17.74,1.51-.98,3.66-2.5,4.65-3.46-.11-1.79-1.65-3.08-3.7-4.01-2.09-.78-4.53-1.19-7.07-1.23-5.63-.08-11.77,1.65-15.77,5.16-7.11,6.32-9.66,14.7-7.67,21.27M405.67,429.81c4.71.07,8.58-3.38,12.5-6.97.85-3.13,2.15-6.13,3.35-9.11,1.69-3.83,3.57-7.5,5.59-11.08-.66-3.35-1.99-6.3-3.91-8.05-1.68-1.46-3.54-2.1-5.44-2.13-5.36-.08-11.03,4.69-13.84,9.35-4.05,6.35-12.13,22.19-2.74,26.88,1.59.75,3.07,1.08,4.48,1.1M246.19,430.33c3.45.05,7.24-.8,10.28-1.81-.02-8.41,6.36-18.82,9.5-24.61.65-1.09,1.29-2.18,1.93-3.27-1.7-4.58-7.03-8.91-11.67-8.98-.31,0-.61,0-.91.04-.53.11-1.61.64-2.13.89-6,3.3-10.23,9.05-13.02,15.28-1.97,5-4,11.3-3.21,16.69,1.16,4.25,4.93,5.71,9.22,5.77M179.62,417.81c10.67-7.17,22.62-12.58,32.99-19.85,0-.06,0-.11-.01-.19-.53-4.07-4.43-5.21-8.73-5.27-.13,0-.25,0-.38,0-12.37.21-25.19,8.76-24.25,22.27.02,1.05.15,2.07.38,3.05M631.68,430.01s.02,0,.03,0c0,0,0,0,0,0-.02,0-.04-.01-.05-.01,0,0,0,0,0,.01,0,0,0,0,0,0M359.67,428.7s-.05-.01-.06-.01c-.01,0,0,0,.06.01M266.21,428.87s.01,0,.02,0c0,0,0,0,0,0-.04-.02-.07-.02-.08-.02-.01,0,0,0,.06.03,0,0,0,0,0,0M541.58,352.52c-1.1-.02-2.1.42-2.89,1.27-4.33,4.78-7.84,9.95-11.78,16.23-6.14,0-11.48.68-16.34,2.08-2.18.71-2.92,2.69-2.7,4.33.23,1.64,1.48,3.34,3.77,3.43h.17s8.76.31,8.76.31l-.12.19c-.22.35-.44.69-.66,1.04-3.9,6.32-8.03,13.15-11.92,20.26-.46.35-.92.69-1.38,1.03-.73.55-1.45,1.09-2.18,1.63-2.49,1.89-5.06,3.4-7.77,4.99-.95.56-1.93,1.13-2.91,1.73-.05-1.11-.12-2.12-.22-3.1-.53-4.85-1.49-8.46-3.09-11.71-1.78-3.32-3.88-6-6.1-8.83-.33-.42-.66-.85-1-1.28l.03-.03.19-.2c.65-.73,1.31-1.44,1.96-2.16,1.25-1.37,2.54-2.78,3.78-4.21,1.02-1.21,1.25-2.69.62-4.06-.64-1.41-2.07-2.37-3.55-2.39-.88-.01-1.75.3-2.5.91-12.11,10.19-27.18,24.77-40.48,37.64-3.32,3.21-6.49,6.28-9.42,9.09l-.83.76c-1.47,1.35-2.99,2.75-4.55,3.91.01-.04.02-.09.04-.13,2.59-9.2,7.49-17.63,12.22-25.77,2.03-3.5,4.13-7.12,6.03-10.75.78-1.5.52-3.33-.64-4.57-.75-.79-1.76-1.24-2.85-1.26-1.04-.02-2.03.37-2.79,1.08-2.64,2.48-5.12,5.39-7.59,8.88-.81-1.76-1.82-3.32-3.01-4.65-3.23-3.58-7.48-5.51-12.29-5.59-7.07-.1-15.08,3.97-19.92,10.14-5.12,6.41-8.8,13.73-10.64,21.16-.22.89-.39,1.82-.55,2.85-3.13,1.44-6.23,2.97-9.22,4.46-2.95,1.46-5.99,2.97-9.03,4.37l-.83.36c-1.88.82-3.81,1.67-5.66,2.14,1.38-5.97,4.15-11.82,6.83-17.47,1.72-3.62,3.49-7.37,4.91-11.14.18-.48.35-.93.51-1.37.92-2.44,1.65-4.36,1.92-7.57.3-3.12-1.92-6.81-4.85-8.04-1.47-.63-3.15-.97-5.01-1-6.97-.1-15.02,4.14-19.39,6.82-.17-.64-.39-1.18-.68-1.66-1.75-2.81-4.67-4.27-8.68-4.32-6.36-.09-14.21,3.3-19.88,6.3.12-.29.24-.58.35-.87.62-1.55.18-3.33-1.09-4.42-.7-.6-1.59-.94-2.5-.95-1.17-.02-2.27.48-3.04,1.36-5.46,6.45-9.63,13.8-13.66,20.92-.52.91-1.03,1.82-1.55,2.73-1.65,2.92-3.17,5.85-4.32,8.09l-.55.37c-5.07,3.38-9.85,6.57-14.82,9.26l-.8.41c-2.63,1.34-5.6,2.85-8.33,3.05.11-2.86,1.28-5.66,2.63-8.89l.39-.94c2.08-4.79,4.7-9.4,7.23-13.86,2.89-5.09,5.88-10.36,8.14-15.99.6-1.53.21-3.25-1-4.38-.73-.68-1.68-1.06-2.68-1.08-1.13-.02-2.22.45-2.99,1.27-1.93,2.07-3.82,4.45-5.78,7.28-.95-1.5-2.07-2.87-3.32-4.08-3.97-3.87-9.07-6.23-13.64-6.29-1.53-.02-3.01.2-4.41.66-1.91.58-4.14,1.7-6.64,3.33-6.19,4.23-11.24,10.45-14.6,17.99-1.89,4.68-3.08,8.5-3.75,12.04-.2.09-.38.19-.55.3-9.03,5.54-20.27,12.44-31.35,12.28-2.21-.03-4.37-.35-6.41-.95-1.51-.5-2.9-1.27-4.12-2.29,10.36-4.32,21.2-10.13,34.08-18.24,4.82-2.78,5.68-9.06,4.03-13.55-3.46-9.67-13.06-11.25-18.48-11.33-4.39-.06-9.14.77-13.38,2.35-8.93,3.11-16.22,9.73-19.5,17.71-1.77,4.46-2.52,8.98-2.21,13.44-5.07,2.66-10.45,6-16.44,10.22-1.38,1.01-1.91,2.65-1.39,4.29.53,1.66,1.98,2.79,3.61,2.81.41,0,.83-.05,1.24-.18,6.05-1.96,11.26-4.15,15.94-6.68,4.19,7.77,12.22,12.48,21.55,12.62,1.69.02,3.43-.1,5.19-.36,9.13-1.23,16.92-5.45,22.69-8.98,1.67-1.08,3.37-2.25,5.2-3.59.65,4,2.4,7.36,5.2,10.01,3.5,3.12,8.72,4.96,14.32,5.04,5.05.07,9.87-1.24,13.58-3.69,1.87,1.58,4.18,2.41,6.88,2.45,4.84.07,10.91-2.33,18.04-7.15-.04.34-.07.64-.07.93-.08,1.08.29,2.14,1.04,2.97.83.91,2.06,1.47,3.28,1.49,1.02.02,1.96-.34,2.71-1.02,2.44-1.97,4.19-5.37,5.73-8.37.63-1.22,1.22-2.37,1.83-3.37.7-1.3,1.4-2.59,2.09-3.88,1.47-2.72,2.99-5.52,4.44-8.31l4.95-9.38c2.56-1.09,5.09-2.27,7.54-3.41,3.35-1.56,6.51-3.03,9.76-4.3l.68-.24c2.1-.76,4.47-1.61,6.67-1.96-1.81,4.93-4.4,9.78-6.92,14.47-.89,1.66-1.81,3.37-2.66,5.05l-.55,1.02c-3.3,6.14-6.71,12.5-9.78,18.91-.81,1.65-.34,3.67,1.12,4.8.67.52,1.47.8,2.32.81,1.24.02,2.39-.53,3.14-1.52,8.86-11.87,15.92-23.46,21.58-35.44,1.56-.78,3.14-1.61,4.67-2.42,5.32-2.82,10.83-5.74,16.59-6.73-.29.88-.68,1.94-1.18,3.18-1.29,3.13-2.71,6.25-4.09,9.27-2.73,5.96-5.55,12.12-7.49,18.83-.56,2.08-1.16,4.8-.91,7.4.12,3.23,2.42,6.41,5.34,7.37.92.35,1.98.53,3.15.55,2.32.03,4.55-.6,5.67-.99,5.34-1.82,9.67-4.37,14.25-7.07,2.66-1.59,5.26-3.25,7.48-4.69,2.04,8.24,9.3,13.84,18.17,13.97,5.05.07,10.03-1.66,14.04-4.89,1.62,1.81,3.85,2.91,6.02,2.95,5.97-.02,10.29-4.02,14.11-7.55.76-.7,1.48-1.36,2.2-2l1.35-1.33c11.11-10.98,22.59-22.33,33.57-33.8.73,1.38,1.6,2.78,2.37,3.78,3.32,4.2,3.88,9.27,4.15,14.1.7,9.6-4.74,16.84-13.87,18.46-.77.17-1.62.25-2.54.24-3.48-.05-8.01-1.38-13.85-4.08-.58-.31-1.19-.48-1.81-.49-1.61-.02-3.09,1.04-3.69,2.64-.59,1.56-.15,3.16,1.16,4.27,6.47,5.09,12.92,7.71,19.18,7.8.51,0,1.03,0,1.54-.03,9.61-.79,18-6.23,21.9-14.18.02-.04.04-.08.05-.12,0,0,0,0,0-.01.56-.3,1.05-.66,1.48-1.06,2.04-1.44,4.22-2.78,6.54-4.18-1.88,5.07-3.74,12.15-.34,17.88,1.29,1.78,3.03,2.68,5.17,2.71,2.8.04,5.79-1.34,8.44-2.57.67-.31,1.31-.61,1.91-.86,7.46-3.68,15.07-8.08,23.27-13.45,2,5.45,5.91,9.87,11.35,12.81,4.56,2.23,9.67,3.4,15.18,3.48,10.66.16,22.53-3.8,32.57-10.84,3.98-2.81,7.8-6.8,11.34-11.86,5.13-7.19,10.01-15.23,14.92-24.57,1.99,1.82,4.2,3.47,6.34,5.06,1.79,1.34,3.64,2.71,5.3,4.16-.52.82-1.05,1.64-1.57,2.46-2.59,4.04-5.27,8.21-7.43,12.66l-.32.72c-1.94,4.3-3.62,8.01-2.92,13.53.48,3.62,3.71,7.79,8.1,8.21.51.06,1.03.1,1.52.1,2.44.04,4.43-.59,6.58-1.35,5.24-2.06,9.76-4.81,14.12-7.47,2.09-1.27,4.25-2.59,6.46-3.81,1.9-1.09,2.2-2.94,1.84-4.31-.38-1.46-1.65-2.95-3.63-2.98-.42,0-.85.06-1.28.19-4.03,1.22-7.99,3.04-11.82,4.81-3.15,1.45-6.13,2.82-9.12,3.87-.71.25-1.57.46-2.25.55.49-4.55,3.24-8.99,5.9-13.3.72-1.17,1.41-2.27,2.05-3.38.46-.79,1.02-1.66,1.61-2.57,1.44-2.23,3.07-4.76,3.74-7.05.46-1.58.16-3.52-.78-5.05-1.05-1.65-2.76-3.1-4.13-4.18-.8-.58-1.6-1.17-2.4-1.76-3.69-2.72-7.5-5.54-11.55-7.71,1.15-2.36,2.16-4.47,3.09-6.43.56-1.28.48-2.57-.21-3.64-.72-1.12-2.01-1.83-3.36-1.85-1.39-.02-2.61.71-3.35,2.01l-.56.97c-7.61,13.25-15.48,26.95-25.05,38.97-7.12,8.74-19.44,14.58-32.14,15.25-.69.04-1.38.05-2.04.04-4.63-.07-8.6-1.29-11.51-3.55,7.56-3.13,15.3-7.02,23.66-11.88.66-.4,1.31-.79,1.97-1.18,3.8-2.26,7.73-4.6,11.05-7.69,1.96-1.86,3.08-4.83,2.91-7.74-1.05-9.26-8.86-14.89-20.88-15.06-5.23-.08-10.72.93-15.05,2.75-11.47,4.67-19.75,17.18-19.75,29.79-2.47,1.24-4.95,2.5-7.41,3.76-6.13,3.13-12.48,6.36-18.67,9.19l-.7.3c-.49.21-1,.43-1.52.65.93-4.45,3.17-9.26,5.39-13.81,5.92-11.66,12.84-23.24,20.01-35.08,1.53.03,3.05.06,4.49.09s2.69.03,3.9.03c3.06.01,6.6,0,10.05-.17,1.74-.06,3.24-1.3,3.65-3,.24-1.02.07-2.07-.48-2.95-.55-.89-1.41-1.51-2.43-1.75-2.94-.7-6.08-1.24-10.18-1.74-1.03-.11-2.05-.21-3.07-.3,2.32-3.86,4.71-8.06,6.53-12.68.5-1.24.38-2.52-.34-3.6-.76-1.14-2.07-1.86-3.42-1.88h0ZM547.12,419.4c-1.88-6.76,1.11-14.85,7.69-20.69,3.67-3.23,9.65-5.18,15.6-5.09,2.56.04,4.98.46,6.99,1.21,2.19.99,3.38,2.23,3.52,3.68-.98.91-2.96,2.33-4.53,3.35-4.81,3.09-9.86,6.02-14.74,8.85-4.79,2.78-9.75,5.65-14.53,8.71h0ZM405.67,429.56c-1.45-.02-2.88-.37-4.38-1.08-1.97-.99-3.27-2.56-3.85-4.67-2.08-7.53,5.21-19.53,6.7-21.85,2.79-4.65,8.37-9.31,13.62-9.24,1.96.03,3.74.72,5.28,2.07,1.77,1.61,3.12,4.39,3.81,7.82-2.17,3.85-3.98,7.46-5.56,11.02l-.48,1.17c-1.04,2.55-2.12,5.19-2.87,7.9-3.73,3.41-7.59,6.92-12.27,6.85h0ZM246.2,430.08c-4.97-.07-7.99-1.95-8.99-5.58-.8-5.47,1.44-12.06,3.2-16.53,3.12-6.98,7.59-12.22,12.91-15.15.53-.26,1.58-.76,2.07-.87.26-.03.55-.04.85-.04,4.34.06,9.64,4.12,11.4,8.7l-1.31,2.22-.56.95c-.36.67-.76,1.38-1.19,2.15-3.31,5.95-8.29,14.92-8.35,22.41-2.14.7-6.13,1.8-10.03,1.74h0ZM179.79,417.4c-.18-.87-.28-1.76-.3-2.64-.36-5.2,1.33-10,4.9-13.89,4.55-4.96,11.7-8,19.11-8.13.12,0,.25,0,.37,0,5.28.08,8.06,1.73,8.49,5.06,0,.01,0,.02,0,.03-5.42,3.79-11.37,7.13-17.14,10.37-5.14,2.89-10.46,5.88-15.44,9.2h0Z"/>
      </g>
    </g>
  </g>
  <g>
    <path d="M70.96,496.85h-25.65c-2.21,0-4,1.8-4,4v43.08c0,2.21,1.8,4,4,4s4-1.8,4-4v-15.74h21.65c8.64,0,15.67-7.03,15.67-15.67s-7.03-15.67-15.67-15.67ZM70.96,520.19h-21.65v-15.33h21.65c4.23,0,7.67,3.44,7.67,7.67s-3.44,7.67-7.67,7.67Z"/>
    <path d="M140.75,512.52c0-8.64-7.03-15.67-15.67-15.67h-25.65c-2.21,0-4,1.8-4,4v43.08c0,2.21,1.8,4,4,4s4-1.8,4-4v-15.74h12.93l17.48,18.49c.75.8,1.81,1.25,2.91,1.25,1.03,0,2-.39,2.75-1.09,1.6-1.52,1.68-4.06.16-5.66l-12.43-13.15c7.68-1.05,13.53-7.65,13.53-15.51ZM132.74,512.52c0,4.23-3.44,7.67-7.67,7.67h-21.65v-15.33h21.65c4.23,0,7.67,3.44,7.67,7.67Z"/>
    <path d="M176.66,496.07c-14.12,0-25.6,11.81-25.6,26.32s11.48,26.32,25.6,26.32,25.6-11.81,25.6-26.32-11.48-26.32-25.6-26.32ZM176.66,540.6c-9.64,0-17.48-8.17-17.48-18.2s7.84-18.2,17.48-18.2,17.48,8.17,17.48,18.2-7.84,18.2-17.48,18.2Z"/>
    <path d="M468.36,496.07c-14.12,0-25.6,11.81-25.6,26.32s11.48,26.32,25.6,26.32,25.6-11.81,25.6-26.32-11.49-26.32-25.6-26.32ZM485.84,522.39c0,10.04-7.84,18.2-17.48,18.2s-17.48-8.17-17.48-18.2,7.84-18.2,17.48-18.2,17.48,8.17,17.48,18.2Z"/>
    <path d="M248.41,496.79h-31.77c-2.24,0-4.06,1.82-4.06,4.06v43.08c0,2.24,1.82,4.06,4.06,4.06s4.06-1.82,4.06-4.06v-15.68h21.23c2.24,0,4.06-1.82,4.06-4.06s-1.82-4.06-4.06-4.06h-21.23v-15.22h27.71c2.24,0,4.06-1.82,4.06-4.06s-1.82-4.06-4.06-4.06Z"/>
    <path d="M294.91,504.91c2.24,0,4.06-1.82,4.06-4.06s-1.82-4.06-4.06-4.06h-28.07c-2.24,0-4.06,1.82-4.06,4.06v43.08c0,2.24,1.82,4.06,4.06,4.06h28.07c2.24,0,4.06-1.82,4.06-4.06s-1.82-4.06-4.06-4.06h-24.01v-11.62h14.14c2.24,0,4.06-1.82,4.06-4.06s-1.82-4.06-4.06-4.06h-14.14v-15.22h24.01Z"/>
    <path d="M667.12,539.88h-24.01v-39.02c0-2.24-1.82-4.06-4.06-4.06s-4.06,1.82-4.06,4.06v43.08c0,2.24,1.82,4.06,4.06,4.06h28.07c2.24,0,4.06-1.82,4.06-4.06s-1.82-4.06-4.06-4.06Z"/>
    <path d="M324.27,504.88h28.22c2.22,0,4.03-1.81,4.03-4.03s-1.81-4.03-4.03-4.03h-28.22c-8.26,0-14.98,6.64-14.98,14.8s6.72,14.8,14.98,14.8h17.27c3.82,0,6.92,3.02,6.92,6.74s-3.1,6.74-6.92,6.74h-28.22c-2.22,0-4.03,1.81-4.03,4.03s1.81,4.03,4.03,4.03h28.22c8.26,0,14.98-6.64,14.98-14.8s-6.72-14.8-14.98-14.8h-17.27c-3.82,0-6.92-3.02-6.92-6.74s3.1-6.74,6.92-6.74Z"/>
    <path d="M381.82,504.88h28.23c2.22,0,4.03-1.81,4.03-4.03s-1.81-4.03-4.03-4.03h-28.23c-8.26,0-14.98,6.64-14.98,14.8s6.72,14.8,14.98,14.8h17.27c3.81,0,6.92,3.02,6.92,6.74s-3.1,6.74-6.92,6.74h-28.23c-2.22,0-4.03,1.81-4.03,4.03s1.81,4.03,4.03,4.03h28.23c8.26,0,14.98-6.64,14.98-14.8s-6.72-14.8-14.98-14.8h-17.27c-3.81,0-6.92-3.02-6.92-6.74s3.1-6.74,6.92-6.74Z"/>
    <path d="M428.42,496.82c-2.22,0-4.03,1.81-4.03,4.03v43.08c0,2.22,1.81,4.03,4.03,4.03s4.03-1.81,4.03-4.03v-43.08c0-2.22-1.81-4.03-4.03-4.03Z"/>
    <path d="M549.08,496.79c-2.24,0-4.06,1.82-4.06,4.06v35.32l-30.06-37.1c-1.15-1.42-2.84-2.24-4.64-2.24-.69,0-1.37.12-2.04.35-2.43.86-4,3.08-4,5.66v41.08c0,2.24,1.82,4.06,4.06,4.06s4.06-1.82,4.06-4.06v-35.12l30.06,37.1c1.15,1.42,2.84,2.23,4.64,2.23.69,0,1.37-.12,2.04-.35,2.43-.86,4-3.09,4-5.66v-41.28c0-2.24-1.82-4.06-4.06-4.06Z"/>
    <path d="M602.58,501.92c-1.55-3-4.62-4.91-8-4.97-.07,0-.14,0-.22,0-3.28,0-6.34,1.79-7.97,4.67l-22.93,40.48c-1.1,1.95-.42,4.43,1.53,5.53.61.35,1.3.53,2,.53,1.46,0,2.82-.79,3.54-2.06l7.48-13.2h31.45l6.68,12.92c.7,1.35,2.08,2.19,3.61,2.19.64,0,1.29-.16,1.86-.45,1.99-1.03,2.77-3.48,1.74-5.47l-20.78-40.15ZM595.37,505.65l9.89,19.12h-22.64l10.85-19.15c.28-.49.75-.55.94-.55.27,0,.71.09.96.58ZM594.41,504.49h0s0,0,0,0h0Z"/>
  </g>
</svg>