<?xml version="1.0" encoding="UTF-8"?>
<svg id="Layer_5" data-name="Layer 5" xmlns="http://www.w3.org/2000/svg" viewBox="0 0 1060.31 1048.36">
  <path d="M574.09,838.46s-4.27,4.02-6.51,6.13c-1.11-.06-3.64-.19-7.22-.37,4.09-6.06,7.57-12.53,10.58-19.19,4.33-10.18,8.6-20.98,8.14-32.25-.48-18.86-14.4-33.5-32.14-38.03-24.77-6.71-57.19,1.69-64.43,29.18-2.24,8.55-1.5,17.6,1.2,25.91,3.68,12.18,9.14,23.81,16.25,34.37-3.59.18-6.12.31-7.23.37-2.46-2.32-6.51-6.13-6.51-6.13-2.54-2.37-6.47.78-4.65,3.79,0,0,6.04,9.77,6.04,9.77.71,1.26,2.15,1.55,3.49,1.65,0,0,19.44,1,19.44,1,4.35.33,7.28-4.97,4.6-8.48-1.56-2.03-3.38-4.17-4.83-6.33-7.03-10.11-12.51-21.39-16.05-33.2-1.4-4.3-2.24-8.96-2.03-13.46.72-20.16,19.57-29.88,37.94-29.62,18.37-.27,37.22,9.47,37.94,29.62.21,4.5-.64,9.16-2.03,13.46-4.1,13.52-10.59,26.44-19.31,37.56-.57.73-1.11,1.27-1.57,1.97-2.65,3.47.19,8.8,4.6,8.48,0,0,19.44-1,19.44-1,1.31-.11,2.75-.37,3.49-1.65l6.04-9.77c1.82-2.98-2.08-6.18-4.65-3.79Z"/>
  <path d="M91.64,706.12l-.54.2,4.12,7.53.38-.1c6.66-1.74,12.76,2.35,18.11,12.15,6.44,11.77,5.26,20.18-3.51,24.97l-1.43.78c-4.11,2.25-8.05,2.64-11.72,1.17-4.08-1.63-7.84-5.57-11.19-11.69-5.65-10.34-4.74-18.7-.92-21.61l.34-.26-4.12-7.53-.45.29c-7.4,4.71-11.35,17.15-2.52,33.31,4.77,8.73,10.49,14.13,16.99,16.05,1.79.53,3.63.8,5.5.8,3.86,0,7.88-1.13,11.99-3.38l1.43-.78c7.79-4.26,19.1-14.65,7.27-36.3-10.58-19.35-23.17-18.07-29.73-15.59Z"/>
  <polygon points="85.87 641.23 85.7 640.76 78.15 643.54 90.72 677.67 80.33 681.5 69.23 651.36 61.68 654.14 72.78 684.28 61.3 688.51 48.73 654.38 41.19 657.16 56.35 698.32 56.52 698.79 101.03 682.4 85.87 641.23"/>
  <path d="M79.9,618.18l-17.56,3.71-5.18-24.49c-.59-2.81-.15-4.78,1.36-6.04,1.34-1.11,3.32-1.53,5.07-1.9l5.07-1.07c1.63-.35,3.06-.74,4.25-1.18l.4-.15-1.87-8.84-.54.2c-1.46.54-2.9.96-4.4,1.28l-5.38,1.14c-4.87,1.03-8.32,3.57-10.03,7.37-2.6-3.55-6.67-4.68-12.4-3.47l-.83.18c-4.16.88-7.15,2.74-8.89,5.52-1.7,2.71-2.12,6.16-1.25,10.26l7.53,35.6,46.4-9.81-1.75-8.3ZM42.05,626.18l-5.78-27.31c-.4-1.91-.21-3.4.56-4.43.59-.78,1.5-1.31,2.72-1.57l.83-.18c.67-.14,1.31-.21,1.92-.21.98,0,1.88.19,2.64.55,1.34.65,2.19,1.81,2.54,3.47l5.78,27.31-11.21,2.37Z"/>
  <polygon points="30.29 553.57 68.53 550.7 69.03 550.66 68.43 542.69 29.69 545.59 28.2 525.61 19.64 526.25 23.19 573.69 23.23 574.19 31.79 573.54 30.29 553.57"/>
  <rect x="39.85" y="483.59" width="8" height="47.42" transform="translate(-464.12 542.63) rotate(-89.04)"/>
  <polygon points="69.03 475.98 50.34 473.89 53.92 441.97 45.92 441.08 42.35 472.99 29.89 471.6 33.93 435.45 25.94 434.56 21.01 478.65 68.14 483.93 69.03 475.98"/>
  <rect x="49.76" y="395.17" width="8" height="47.42" transform="translate(-367.15 384.41) rotate(-78)"/>
  <polygon points="95.62 358.45 87.96 356 76.84 390.62 66.3 387.24 76.12 356.66 68.47 354.2 58.65 384.78 47 381.04 58.12 346.41 50.47 343.95 36.9 386.19 82.05 400.7 95.62 358.45"/>
  <path d="M112.04,322.61c11.58-23.47,3.13-30.07-6.5-34.83l-3.05-1.51c-9.88-4.88-21.4-8.11-32.98,15.35l-10.91,22.11,42.54,20.98,10.9-22.11ZM69.98,320.43l7.37-14.94c3.81-7.72,7.47-12.17,11.2-13.59,3.25-1.24,6.49-.23,10.34,1.67l3.05,1.51c3.38,1.67,6.04,3.2,6.85,6.44.9,3.59-.56,9.06-4.58,17.22l-7.37,14.94-26.86-13.25Z"/>
  <polygon points="141.06 194.11 156.46 206.7 134.34 233.76 118.94 221.18 113.88 227.37 150.6 257.39 155.67 251.19 140.27 238.61 162.39 211.54 177.79 224.13 182.85 217.93 146.12 187.92 141.06 194.11"/>
  <rect x="179.12" y="160.82" width="8" height="47.42" transform="translate(-76.83 181.54) rotate(-44.56)"/>
  <path d="M199.86,168.65c4.41,5.54,9.33,8.75,14.64,9.53.87.13,1.74.19,2.63.19,5.79,0,12.11-2.69,18.81-8.02,8.28-6.59,12.14-12.63,12.03-18.91l4.82,4.52,5.13-4.08-16.22-20.41-20.49,16.3,5,6.29,13.46-10.7c2.58,6.83-.27,13.07-9.16,20.14-5.49,4.37-10.2,6.35-14.39,6.09-3.63-.23-6.87-2.2-9.89-6.01l-1.01-1.27c-2.91-3.66-3.97-7.48-3.15-11.35.91-4.29,4.15-8.68,9.61-13.02,12.15-9.66,18.43-5.06,19.57-4.03l.31.28,6.7-5.33-.34-.39c-1.93-2.23-12.51-12.61-31.68,2.63-7.79,6.19-12.13,12.75-12.92,19.48-.66,5.7,1.2,11.35,5.53,16.79l1.01,1.27Z"/>
  <polygon points="278.62 138.77 268.71 121.53 299.01 104.1 308.93 121.34 315.86 117.35 292.22 76.24 285.29 80.23 295.2 97.47 264.89 114.9 254.98 97.66 248.04 101.64 271.68 142.76 278.62 138.77"/>
  <path d="M370.03,94.72l-4.67-14.35,20.66-6.73c5.38-1.75,8.84-4.14,10.6-7.31,1.82-3.28,1.86-7.48.12-12.81l-.7-2.13c-1.42-4.36-3.38-7.1-6.15-8.62-3.38-1.85-7.92-1.81-13.88.13l-28.27,9.2,14.68,45.1,7.61-2.48ZM377.74,51.52c7.53-2.45,9.41-1.18,10.57,2.38l.69,2.13c.87,2.67.87,4.38,0,5.75-.95,1.49-3,2.68-6.65,3.87l-19.69,6.41-4.6-14.13,19.69-6.41Z"/>
  <path d="M420.8,79.39l8.34-1.53-3.23-17.66,24.62-4.5c6.32-1.16,7.08,2.99,7.75,6.65l.93,5.1c.3,1.64.66,3.08,1.07,4.28l.14.41,8.89-1.63-.19-.55c-.49-1.45-.88-2.94-1.15-4.43l-.99-5.4c-.9-4.9-3.34-8.41-7.09-10.23,3.62-2.5,4.86-6.53,3.81-12.29l-.15-.84c-1.51-8.25-7.16-12.1-15.49-10.58l-35.8,6.55,8.45,46.16.09.49ZM449.63,34.79c1.92-.35,3.4-.12,4.42.68.77.61,1.27,1.54,1.5,2.76l.15.84c.32,1.76.16,3.33-.47,4.54-.68,1.32-1.87,2.14-3.54,2.45l-27.46,5.02-2.06-11.27,27.46-5.02Z"/>
  <polygon points="529.92 66.79 529.51 58.75 493.19 60.6 492.63 49.54 524.7 47.91 524.3 39.88 492.22 41.51 491.6 29.29 527.92 27.45 527.52 19.42 483.21 21.67 485.61 69.04 529.92 66.79"/>
  <path d="M548.44,63.52c3.97,3.37,10.02,5.38,17.98,5.98,2.47.19,4.74.28,6.83.28,13.28,0,19.13-3.87,19.8-12.65l.06-.77c.83-10.9-8.61-13.18-24.08-15.99-16.53-3-16.35-5.28-16.24-6.79l.05-.7c.14-1.84,2.98-2.7,5.34-3.1,3.17-.54,7.56-.61,12.71-.22,5.17.39,9.16,1.27,11.84,2.62,2.98,1.49,4.33,3.48,4.13,6.09l-.04.5,7.98.61.04-.5c.43-5.71-1.51-10.12-5.78-13.11-3.86-2.7-9.59-4.31-17.51-4.91-17.42-1.32-26.22,2.46-26.91,11.57l-.05.62c-.83,10.89,6.96,12.9,23.24,16.08,17.34,3.14,17.14,5.82,17.07,6.7l-.07.93c-.36,4.76-9.68,4.66-17.77,4.05-5.57-.42-9.76-1.54-12.46-3.33-2.48-1.64-3.63-3.81-3.43-6.46l.04-.5-7.98-.61-.04.5c-.41,5.42,1.34,9.84,5.22,13.12Z"/>
  <path d="M629.46,78.45c5.29,1.12,9.63,1.68,13.21,1.68,2.42,0,4.5-.26,6.28-.76,4.66-1.33,7.46-4.48,8.55-9.63l.16-.76c2.27-10.69-6.78-14.2-21.74-19.05-15.98-5.18-15.51-7.41-15.19-8.89l.14-.68c.38-1.81,3.32-2.28,5.71-2.36,3.21-.11,7.58.4,12.63,1.47,10.76,2.29,15.7,5.91,14.67,10.75l-.1.49,7.82,1.66.1-.49c2.27-10.67-4.5-17.52-20.68-20.96-8.49-1.8-15.15-2.05-19.81-.73-4.64,1.32-7.47,4.21-8.41,8.61l-.13.61c-2.27,10.68,5.18,13.71,20.9,19.03,16.77,5.42,16.21,8.05,16.03,8.91l-.19.91c-.45,2.11-2.58,3.15-6.52,3.2-.09,0-.18,0-.27,0-3.57,0-7.94-.83-11.37-1.56-5.46-1.16-9.46-2.83-11.9-4.96-2.24-1.95-3.09-4.26-2.54-6.86l.1-.49-7.82-1.66-.1.49c-2.32,10.91,4.95,18.73,20.46,22.02Z"/>
  <path d="M692.02,96.23c5,1.81,9.24,2.58,12.83,2.58,12.13,0,17-8.78,19.69-16.21l8.21-22.74-8.1-2.92-8.91,23.64c-1.5,4.15-3.74,6.77-6.86,7.99-3.42,1.34-8.04.99-13.71-1.06-10.46-3.78-14.4-10.17-11.4-18.48l8.58-23.76-8.1-2.92-8.9,23.64h0c-2.33,6.45-2.56,11.82-.71,16.42,2.35,5.86,8.2,10.51,17.39,13.83Z"/>
  <path d="M739.37,115.18l8.39-15.87,22.13,11.7c2.54,1.34,3.77,2.95,3.76,4.91,0,1.74-.95,3.53-1.79,5.11l-2.42,4.58c-.78,1.47-1.39,2.83-1.81,4.03l-.14.41,7.99,4.23.19-.55c.52-1.47,1.12-2.84,1.84-4.2l2.57-4.86c2.33-4.4,2.58-8.67.76-12.43,4.39.28,7.86-2.12,10.6-7.3l.4-.75c3.92-7.41,1.87-13.93-5.62-17.89l-32.17-17.01-22.17,41.93,7.5,3.96ZM757.45,80.98l24.67,13.04c1.72.91,2.75,2.01,3.05,3.27.23.95.05,1.99-.54,3.1l-.4.75c-1.8,3.41-4.59,4.53-7.47,3.01l-24.67-13.05,5.35-10.13Z"/>
  <polygon points="825.26 168.99 829.93 162.44 800.34 141.3 806.78 132.3 832.91 150.96 837.58 144.42 811.45 125.75 818.57 115.8 848.16 136.94 852.83 130.4 816.73 104.61 789.16 143.2 825.26 168.99"/>
  <polygon points="937.05 214.1 902.64 229.76 919.65 194.6 913.35 187.55 876.5 200.47 895.95 168.06 890.45 161.9 864.88 204.47 870.83 211.14 908.97 197.8 891.41 234.19 897.36 240.85 942.54 220.25 937.05 214.1"/>
  <path d="M936.61,298.23l26.57-44.69.69-.21-5.37-8.18-.38.79-51.53,6.54,5.02,7.64,9.14-1.16,15.55,23.69-4.7,7.93,5.02,7.64ZM930.39,257.74l22.43-2.88-11.56,19.44-10.87-16.56Z"/>
  <polygon points="944.63 314.68 948.24 321.82 982.9 304.27 991.95 322.15 999.6 318.27 977.89 275.38 970.23 279.26 979.28 297.13 944.63 314.68"/>
  <polygon points="976.18 391.31 983.75 388.61 971.52 354.36 981.94 350.64 992.75 380.88 1000.32 378.17 989.52 347.93 1001.04 343.81 1013.27 378.06 1020.85 375.36 1005.92 333.58 961.25 349.53 976.18 391.31"/>
  <path d="M981.74,413.95l17.6-3.54,4.94,24.54c1.27,6.31-2.86,7.14-6.51,7.87l-5.08,1.02c-1.63.33-3.07.71-4.26,1.14l-.41.15,1.78,8.86.54-.2c1.46-.53,2.91-.93,4.41-1.23l5.38-1.08c4.88-.98,8.35-3.49,10.1-7.27,2.56,3.57,6.62,4.75,12.36,3.59l.83-.17c8.22-1.65,11.97-7.37,10.3-15.67l-7.18-35.68-46.49,9.36,1.67,8.31ZM1019.67,406.31l5.5,27.36c.85,4.21-1.35,5.57-3.34,5.97l-.83.17c-1.75.35-3.33.22-4.55-.39-1.33-.66-2.17-1.83-2.51-3.49l-5.5-27.36,11.23-2.26Z"/>
  <path d="M991.86,478.08l15.07-.79,1.15,21.7c.3,5.65,1.71,9.61,4.32,12.13,2.42,2.34,5.91,3.48,10.65,3.48.55,0,1.12-.02,1.7-.05l2.24-.12c4.58-.24,7.73-1.42,9.92-3.71,2.66-2.79,3.8-7.18,3.47-13.44l-1.57-29.69-47.36,2.5.42,7.99ZM1030.5,476.04l1.09,20.68c.2,3.77-.06,6.08-.84,7.5-.74,1.35-1.99,1.97-4.2,2.09l-2.24.12c-2.8.14-4.46-.3-5.55-1.5-1.19-1.31-1.81-3.6-2.01-7.43l-1.09-20.68,14.84-.78Z"/>
  <path d="M993.44,530.96l-.78,8.44,17.88,1.65-2.29,24.92c-.59,6.4-4.79,6.02-8.49,5.68l-5.16-.48c-1.66-.15-3.14-.2-4.41-.12l-.43.02-.83,9,.58-.03c1.55-.09,3.05-.06,4.58.08l5.47.5c4.95.45,9-.95,11.76-4.07,1.43,4.16,4.98,6.44,10.82,6.98l.85.08c.65.06,1.27.09,1.88.09,3.37,0,6.14-.92,8.25-2.73,2.43-2.09,3.85-5.26,4.23-9.43l3.33-36.23-47.23-4.35ZM1028.63,570.75c-.18,1.94-.8,3.31-1.84,4.07-.79.58-1.82.81-3.06.7l-.85-.08c-1.78-.16-3.25-.74-4.25-1.67-1.09-1.01-1.56-2.38-1.4-4.06l2.56-27.79,11.41,1.05-2.56,27.79Z"/>
  <path d="M1011.52,599.23l-3.3-.84c-6.64-1.68-22.77-2.92-29.06,21.89-2.45,9.68-1.91,17.58,1.6,23.48,3.59,6.02,9.5,8.59,13.82,9.69l3.3.84c2.15.54,4.24.82,6.26.82,3.89,0,7.49-1.01,10.62-3,5.62-3.58,9.7-10.22,12.11-19.72,2.43-9.6,1.95-17.44-1.43-23.29-2.8-4.85-7.61-8.25-13.92-9.85ZM1018.4,630.22c-3.11,12.27-10.43,18.22-19.56,15.9l-3.3-.84c-8.42-2.13-11.15-10.04-7.9-22.86,3.2-12.64,9.81-18.38,18.59-16.15l3.3.84c8.93,2.26,12.08,10.47,8.87,23.11Z"/>
  <path d="M992.08,670.33l-3.12-1.35c-6.29-2.72-22-6.53-32.19,16.96-3.97,9.16-4.7,17.04-2.18,23.43,2.58,6.52,8,10,12.08,11.78l3.12,1.35c3.24,1.4,6.38,2.09,9.39,2.09,9.3,0,17.31-6.59,22.72-19.08,3.94-9.09,4.72-16.9,2.32-23.22-1.99-5.23-6.19-9.36-12.16-11.95ZM993.9,702.02c-5.04,11.62-13.21,16.32-21.86,12.57l-3.12-1.35c-7.97-3.46-9.4-11.7-4.13-23.83,5.19-11.97,12.62-16.57,20.93-12.97l3.12,1.35c3.96,1.72,6.49,4.49,7.5,8.25,1.14,4.24.32,9.62-2.44,15.98Z"/>
  <polygon points="938.1 726.25 933.9 733.06 949.91 742.93 933.05 770.26 939.9 774.49 956.75 747.15 967.43 753.73 948.34 784.69 955.19 788.91 978.47 751.14 938.52 726.52 938.1 726.25"/>
  <path d="M264.92,925.51c-.33-4.39-2.62-10.3-6.86-17.73-3.03-5.32-4.87-8.86-5.53-10.61-.88-2.41-1.28-4.54-1.19-6.38.08-1.36.53-2.68,1.35-3.96,1.3-2.02,3.24-3.29,5.84-3.82,2.59-.52,5.26.09,8,1.85,3.54,2.28,5.89,5.86,7.05,10.77,1.15,4.9.57,10.02-1.76,15.36l1.65,1.06,11.95-19.57-1.21-.78c-1.46,1.51-2.54,2.37-3.24,2.56-.7.2-1.39.07-2.09-.38-.73-.47-1.7-1.74-2.91-3.83-1.22-2.09-2.35-3.71-3.39-4.86-1.37-1.52-2.94-2.86-4.71-3.99-4.86-3.12-9.93-4.09-15.2-2.89-5.28,1.19-9.4,4.09-12.36,8.7-1.74,2.7-2.74,5.55-3.02,8.55s.09,6.11,1.09,9.32c1,3.22,3.16,7.72,6.46,13.49,2.35,4.13,3.86,7.21,4.52,9.26.65,2.05.91,3.93.78,5.65-.14,1.72-.65,3.26-1.52,4.63-1.48,2.3-3.67,3.75-6.57,4.34-2.9.59-5.85-.08-8.86-2.01-3.89-2.5-6.48-6.45-7.78-11.84-1.29-5.39-.56-11.54,2.21-18.45l-1.49-.96-14.04,21.85,1.49.96c1.23-.86,2.42-1.32,3.56-1.39,1.14-.07,2.06.12,2.76.57.83.53,1.71,1.5,2.63,2.9,1.65,2.51,3.12,4.44,4.41,5.79,1.29,1.35,2.8,2.58,4.51,3.68,5.48,3.52,11.11,4.68,16.91,3.48,5.79-1.2,10.25-4.22,13.35-9.06,2.45-3.81,3.52-7.9,3.22-12.28Z"/>
  <path d="M319.57,916.42c4.43,2.11,7.33,3.83,8.68,5.15,2.33,2.23,3.78,4.69,4.36,7.36.58,2.67.22,6.45-1.09,11.34l1.64.78,8.76-18.36-49.02-23.38-.81,1.69,1.94.93c1.9.91,3.19,2.05,3.88,3.42.5.95.64,2.03.42,3.23-.16.71-.91,2.47-2.25,5.28l-19.48,40.84c-1.49,3.11-2.56,4.96-3.23,5.54-.9.85-1.82,1.3-2.78,1.37-1.34.15-2.86-.19-4.56-1l-1.94-.93-.81,1.69,50.62,24.15,12.05-18.47-1.6-.76c-4.06,4.81-8.38,7.77-12.96,8.88s-9.6.36-15.07-2.25l-3.5-1.67c-1.67-.8-2.76-1.62-3.28-2.46-.52-.84-.73-1.71-.64-2.61.09-.89.95-3.05,2.58-6.47l8.34-17.49c2.79,1.33,4.74,2.74,5.83,4.22,1.1,1.48,1.66,3.61,1.69,6.4s-.62,6.03-1.97,9.74l1.64.78,15.51-32.5-1.64-.78c-2.76,4.6-5.57,7.74-8.42,9.42-2.85,1.68-6.13,1.63-9.85-.14l-1.17-.56,12.05-25.27,6.05,2.88Z"/>
  <path d="M391.94,1008.06c-.96-1.75-1.7-5.51-2.23-11.28l-5.45-60.82-.87-.27-38.57,45.42c-3.67,4.34-6.47,7.09-8.4,8.24s-4.06,1.55-6.4,1.21l-.56,1.79,20.59,6.46.56-1.79c-3.15-1.27-5.05-2.29-5.71-3.07-1.13-1.31-1.4-2.88-.83-4.72.43-1.39,1.41-3.01,2.93-4.88l4.61-5.57,21.87,6.86.72,9.21c.18,2.4.26,3.75.23,4.06,0,.67-.11,1.3-.29,1.88-.3.97-.87,1.61-1.7,1.91-1.2.4-3,.23-5.4-.52l-1.23-.39-.56,1.79,29.95,9.39.56-1.79c-1.84-.75-3.12-1.79-3.84-3.12ZM354.34,975.7l16.58-19.62,2.14,25.49-18.72-5.87Z"/>
  <path d="M455.38,999.56l-11.84-47.42-26.26-3.63-.26,1.86,2.04.28c1.8.25,3.19.77,4.18,1.58.98.8,1.59,1.65,1.82,2.56s.11,3.08-.37,6.53l-5.96,43.11c-.42,3.05-.69,4.75-.8,5.11-.57,1.53-1.22,2.68-1.98,3.46-.75.78-1.78,1.35-3.08,1.7-1.3.35-2.67.41-4.08.18l-.66-.09-.26,1.86,21.99,3.04.26-1.86c-2.94-.41-5.02-1.23-6.25-2.48s-1.93-2.73-2.11-4.46c-.05-.79.16-2.86.62-6.21l6.64-47.98,16.49,65.16,1.14.16,33.25-58.74-6.99,50.5c-.47,3.42-.94,5.5-1.4,6.26-.63,1.07-1.38,1.79-2.23,2.15-1.24.55-2.8.69-4.7.43l-2.09-.29-.26,1.86,33.56,4.64.26-1.86-2.09-.29c-1.8-.25-3.19-.77-4.18-1.58-.98-.8-1.59-1.66-1.82-2.58-.23-.92-.1-3.12.38-6.6l6.21-44.92c.47-3.38.93-5.45,1.39-6.21.63-1.04,1.37-1.74,2.22-2.1,1.23-.55,2.8-.69,4.7-.43l2.08.29.26-1.86-26.17-3.62-23.66,42.5Z"/>
  <path d="M572.43,1023.36c-1.47-1.35-3.39-4.67-5.75-9.95l-24.8-55.8-.91.02-21.83,55.45c-2.07,5.29-3.83,8.8-5.29,10.51s-3.34,2.78-5.66,3.21l.05,1.88,21.57-.54-.05-1.88c-3.39-.19-5.52-.54-6.39-1.06-1.49-.88-2.26-2.28-2.31-4.2-.04-1.45.36-3.31,1.2-5.56l2.56-6.76,22.91-.57,3.66,8.48c.95,2.21,1.46,3.46,1.53,3.77.21.64.32,1.26.33,1.87.03,1.01-.31,1.8-.99,2.36-1,.77-2.76,1.19-5.28,1.25l-1.29.03.05,1.88,31.38-.79-.05-1.88c-1.98-.12-3.53-.69-4.64-1.71ZM526.4,1004.88l9.36-23.93,10.26,23.44-19.61.49Z"/>
  <path d="M627.77,987.5c-3.15-3.08-8.78-6-16.88-8.76-5.79-1.99-9.51-3.42-11.16-4.3-2.25-1.23-3.96-2.56-5.11-3.99-.84-1.07-1.38-2.35-1.61-3.86-.36-2.37.25-4.61,1.85-6.72,1.6-2.11,4.01-3.41,7.22-3.9,4.16-.64,8.3.5,12.41,3.41,4.11,2.91,7.05,7.14,8.84,12.68l1.94-.3-3.98-22.58-1.42.22c-.1,2.1-.34,3.46-.73,4.06-.39.61-1,.97-1.82,1.1-.85.13-2.42-.18-4.72-.95-2.29-.76-4.21-1.23-5.76-1.4-2.04-.24-4.1-.19-6.18.12-5.71.87-10.15,3.5-13.32,7.88-3.17,4.38-4.34,9.28-3.51,14.7.49,3.18,1.62,5.98,3.39,8.41,1.78,2.43,4.1,4.52,6.99,6.27,2.88,1.75,7.47,3.7,13.77,5.85,4.5,1.54,7.67,2.86,9.51,3.96,1.85,1.1,3.29,2.35,4.32,3.73,1.03,1.38,1.67,2.87,1.92,4.48.41,2.71-.27,5.24-2.06,7.6-1.79,2.36-4.44,3.81-7.98,4.35-4.57.7-9.13-.55-13.67-3.73-4.54-3.19-8.05-8.29-10.54-15.3l-1.75.27,3.92,25.67,1.75-.27c.36-1.46.94-2.59,1.76-3.4.81-.81,1.63-1.28,2.45-1.4.98-.15,2.27,0,3.89.43,2.9.79,5.28,1.26,7.14,1.42,1.86.16,3.8.08,5.82-.22,6.43-.98,11.43-3.84,14.98-8.58,3.55-4.73,4.89-9.94,4.03-15.62-.68-4.48-2.59-8.26-5.7-11.34Z"/>
  <path d="M693.46,1001.37c-1.78.5-3.28.58-4.48.24-1.21-.34-2.11-.89-2.7-1.64-.59-.75-1.37-2.81-2.32-6.2l-14.42-51.06,4.65-1.31c2.92-.82,5.04-1.11,6.37-.85,2.39.48,4.44,1.46,6.15,2.93,1.71,1.47,3.64,4.13,5.79,7.99l1.66-.47-5.06-17.92-56.09,15.84,5.06,17.92,1.75-.49c-.67-5.08-.04-9.32,1.88-12.71,1.37-2.42,4.16-4.23,8.37-5.42l4.51-1.27,14.42,51.06c.94,3.32,1.35,5.42,1.23,6.29-.15,1.24-.56,2.2-1.23,2.88-.91,1-2.27,1.75-4.08,2.26l-2.07.58.51,1.81,32.7-9.23-.51-1.81-2.07.59Z"/>
  <path d="M764.88,951.73c.97,6.22.37,11.42-1.79,15.61-2.16,4.19-6.02,7.49-11.58,9.91l-3.55,1.55c-1.7.74-3.03,1.03-4.01.86-.98-.16-1.77-.57-2.39-1.23-.62-.65-1.68-2.72-3.19-6.19l-7.74-17.76c2.84-1.24,5.17-1.78,7.01-1.64,1.84.14,3.82,1.11,5.94,2.92,2.12,1.8,4.15,4.43,6.06,7.87l1.67-.73-14.38-33.02-1.67.73c1.67,5.1,2.2,9.28,1.59,12.53s-2.79,5.7-6.56,7.34l-1.18.52-11.18-25.67,6.14-2.67c4.5-1.96,7.7-3.02,9.58-3.18,3.21-.29,6.02.22,8.42,1.53,2.4,1.32,5.02,4.07,7.85,8.25l1.67-.73-8.12-18.65-49.79,21.69.75,1.72,1.97-.86c1.93-.84,3.64-1.07,5.13-.68,1.05.25,1.95.85,2.72,1.8.43.59,1.27,2.31,2.51,5.16l18.07,41.48c1.38,3.16,2.07,5.19,2.07,6.07.05,1.23-.21,2.23-.78,3-.77,1.11-2.02,2.04-3.74,2.79l-1.97.86.75,1.72,51.42-22.39-6.05-21.21-1.62.71Z"/>
  <path d="M842.49,927.04c-1.12-.18-3.34-1.02-6.66-2.51l-25.5-11.62c2.82-2.97,4.61-5.92,5.38-8.86,1.19-4.63.46-9.1-2.21-13.42-2.18-3.54-5.07-6.02-8.64-7.45-3.58-1.43-7.22-1.67-10.92-.74-3.7.93-8.89,3.46-15.57,7.58l-25.66,15.83.99,1.6c2.53-1.56,4.4-2.38,5.62-2.46,1.22-.08,2.27.18,3.15.77.87.59,2.29,2.47,4.24,5.64l23.44,37.99c1.95,3.17,3,5.26,3.13,6.3.13,1.03-.1,2.08-.7,3.15-.6,1.07-2.17,2.38-4.73,3.96l.99,1.6,28.26-17.44-.99-1.6c-2.52,1.56-4.4,2.38-5.62,2.46-1.22.08-2.27-.18-3.15-.77-.87-.59-2.29-2.47-4.24-5.64l-10.12-16.4,3.62-2.24,34.26,15.7,17.39-10.73-.99-1.6c-1.52.82-3.11,1.12-4.77.92ZM801.2,914.17c-1.42,1.89-4.02,4-7.79,6.33l-2.32,1.43-15.82-25.64,4.36-2.69c4.37-2.7,8.2-3.59,11.48-2.67,3.28.92,6.3,3.6,9.05,8.06,1.9,3.08,2.9,5.91,3.01,8.48.11,2.58-.55,4.81-1.97,6.7Z"/>
  <path d="M852.56,577.82c7.59-9.56,11.43-16.52,11.43-20.72,0-.72-.22-2.09-1.72-3.17-3.48-2.51-13.4-2.28-23.63.28,4.18-14.8,4.12-25.42-.34-27.65-4.29-2.14-16.37,5.62-23.63,11.08-2.86-12.71-7.91-22.22-12.89-23.81-1.94-.62-3.86-.15-5.29,1.27-3.69,3.69-10.35,17.83-13.68,28.42-9.25-9.62-13.02-12.78-16.75-12.25-2.85.39-4.17,2.91-4.6,3.73-2.83,5.38-7.28,27.45-6.41,44.18-2.97.55-5.68,1.08-8.15,1.58,3.32-12.29,5.85-23.89,6.67-40.64.93-18.97-7.79-40.57-22.22-55.03-8.67-8.69-23.32-18.86-43.8-17.9-39.46,1.84-74.6,42.22-100.25,71.7l-.34.39c-3.29,3.78-6.53,6.43-9.58,8.26,0,0,0,0,0,0-6.72,4.04-12.55,4.12-16.01,3.6-3.48-.52-6.74-2.07-9.61-4.25-.07-.07-.15-.12-.23-.18-5.51-4.28-9.52-10.88-10.76-17,5.72-6.89,11.49-13.36,17.26-19.33,9.37,6.67,20.87,10.65,32.41,8.05,14.49-3.22,25.84-16.25,28.31-30.63,2.43-15.94-6.18-31.08-18.06-41.24.04-.05.08-.09.12-.15,25.51-42.11,37.46-81.35,36.11-118.9.06-.91.1-1.84.12-2.78,0-.49-.11-.95-.32-1.37-.74-11.97-2.83-23.78-6.29-35.45-12.15-41.01-37.44-69.65-71.35-82.81-.17-.08-.34-.17-.51-.25-.24-.11-.5-.18-.75-.22-9.13-3.42-18.87-5.73-29.14-6.86-.29-.07-.58-.11-.87-.09-8.59-.89-17.55-.96-26.83-.19-8.29-7.5-18.07-13.11-29.91-17.21-16.7-5.78-21.9-6.94-24.22-3.47-2.15,3.22,1.38,7.19,3.27,9.32,2.72,3.06,4.63,7.28,6.64,11.75,3.27,7.25,6.93,15.36,15.12,21.18-4.73,4.52-8.91,8.43-12.67,11.94-17.2,16.07-24.31,22.73-25.51,33.93-.96,9.05-3.92,11.75-14.9,21.81-2.9,2.65-6.18,5.66-10.09,9.4-3.39,3.24-6.53,6.12-9.31,8.67-13.29,12.21-20.62,18.93-18.86,31.41.51,3.64,1.37,6.87,2.45,9.73.02.05.04.1.06.16,3.5,9.1,9.43,14.24,14.77,15.41,3.44.76,3.6.93,5.17,2.61.13.14.28.3.43.46.56.94,1.46,1.89,2.79,2.75.28.26.57.52.89.8,2.94,2.56,5.75,3.82,8.55,3.82.34,0,.68-.02,1.02-.06,4.68-.51,8.18-4.56,10.41-7.56,1.41-1.91,2.85-3.61,4.18-5.07.43,2.58,1.36,5.1,2.35,7.35,1.82,4.21,3.52,8.08,4.84,12.26.91,2.96,1.22,6.08.94,9.17-.34,3.47-1.37,7.03-3.05,10.09-1.07,1.58-.3,3.86,1.56,4.39,1.48.45,2.94.95,4.45,1.34,2.24.53,4.76.97,7.05,1.11h2.45c1.18.02,2.51-.29,3.71-.4,9.06-1.73,15.46-9.48,16.63-18.41.11-.84.16-1.68.18-2.51,1.63,4.5,2.86,9.18,4.02,13.87-6.16,4.57-13.69,9.33-22.02,14.6-31.51,19.93-74.3,46.99-89.44,95.37-1.84-1.66-3.71-3.29-5.64-4.82-14.69-11.35-33.8-13.99-50.54-5.43-9.35,4.96-17.31,12.55-23.14,21.34-3.77,5.94-6.64,12.1-9.53,18.2-8.28,17.42-16.6,37.5-25.8,54.44-6.29,11.09-13.63,22.67-24.62,29.3-11.15,6.75-24.69,5.05-37.05,2.37-.76-.17-1.57-.06-2.27.39-1.39.88-1.8,2.73-.91,4.12,1.74,2.77,3.55,5.53,5.6,8.17,4.22,5.39,9.5,10.52,16.32,12.63,1.6.51,3.24.84,4.87,1.04-3.09,4.81-5.62,10.51.8,13.59,3.32,1.58,7.34-.34,10.33-1.75,4.87-2.47,9.41-5.63,13.44-9.33-.76,3.98-.7,8.19-.05,12.03.26,2.07,2.6,3.34,4.48,2.41,18.66-8.73,34.82-28.93,38.74-49.99.5,1.45,1.08,2.88,1.73,4.28,5.03,11.08,14.19,20.14,25.17,25.32,5.47,2.62,11.35,4.3,17.3,5.16.93.13,1.93-.18,2.62-.92,1.18-1.25,1.04-3.25-.27-4.35-6.81-5.85-10.69-14-12.71-22.61,10.39,12.09,26.15,16.99,41.91,17.35,1.54,4.75,6.1,16.68,16.47,30.49,10.85,14.46,30.23,33.49,62.49,46.2.03,0,.06.03.09.03,3.67,1.44,7.5,2.81,11.52,4.08,17.96,5.66,36.19,7.91,53.91,7.91,54.09,0,103.36-21.02,125.28-30.37,1.19-.51,2.3-.98,3.34-1.42,26.82-11.35,51.97-12.62,66.56-10.03,13.27,2.35,14.36,18.51,14.4,19.19.07,1.22.87,2.28,2.03,2.68,1.16.4,2.44.04,3.24-.88,3.96-4.61,6.38-9.86,7.13-15.29,11.46,4.31,21.37,6,29.85,6,13.33,0,23.14-4.15,29.9-8.73,9.65-6.54,16.96-16.62,21.08-28.42,18.27,10.62,34.09,10.94,34.25,10.94,1.52,0,2.83-.76,3.6-2.08,2.23-3.84-1.32-12.38-4.72-18.93,15.85-2.3,29.1-8.29,29.91-13.85.69-4.7-2.94-16.15-12.29-24.49,16.8-12.19,23.7-22.25,24.07-25.92.09-.9-.08-2.26-1.41-3.67-2.81-2.98-11.09-5.77-23.81-6.07ZM552.29,554.35c2.54,1.34,5.27,2.3,8.16,2.73,3.58.54,9.16.58,15.59-2.14.05,6.11.24,12.28.54,18.42-.03.32-.02.63.05.94,2.08,40.89,8.88,80.34,10.75,90.62-7.6,2.59-15.65,3.83-23.82,3.42-1.14-.03-2.25.58-2.8,1.66-4.36,8.75-10.04,16.79-17.15,23.45,2.16-3.94,3.85-8.15,4.89-12.54.59-2.54,1.04-5.08.98-8-.12-1.5-.14-2.89-1.27-4.43-.1-.13-.2-.25-.31-.36-.51-7.76-2.14-43.07,4.38-113.78ZM541.91,668.33c-.12.1-.24.19-.36.3-2.5,2.17-4.13,5.41-5.93,8.04-3.88,5.99-8.24,11.61-13.39,16.49.48-2.3.29-4.33-.89-5.75-.66-.8-3.19-3.16-7.92.17-3.14,2.21-8.81,5.64-16.09,9.23,5.05-36.01,21.56-78.22,47.09-120.5-4.3,56.03-3.02,84.48-2.5,92.03ZM630.88,327.5c-1.15,16.69-9.96,26.93-19.27,37.72-4.58,5.3-9.27,10.74-12.96,17.01-3.77-13.14-.59-26.34,9.65-40.18,8.74-11.81,16.75-24.21,20.06-37.03,1.4,7.43,2.24,14.92,2.52,22.49ZM622.76,283.69c4.96,18.53-6.33,37.28-19.28,54.78-2.71,3.66-4.97,7.33-6.79,10.99-6.1-10.29-4.65-23.04,4.36-37.99,7.78-12.91,15.14-27.6,15.57-43.03,2.28,4.84,4.33,9.93,6.14,15.25ZM598.59,240.45c3.55,4.11,6.85,8.54,9.89,13.27,6.41,19.11-2.75,38.34-12.58,54.65-1.36,2.25-2.53,4.43-3.54,6.53-10.85-11.74-8.66-19.82-1.7-33.53,5.18-10.19,10.01-26.99,7.92-40.93ZM587.55,229.36c9.91,11.14,4.63,35.8-2.23,49.3-1.48,2.9-2.81,5.68-3.89,8.41-8.27-9.2-10.4-20.33-7.11-36.35,2.61-12.71,1.49-24.22-2.79-32.82,5.68,3.3,11.03,7.13,16.02,11.46ZM557.39,211.02c10.38,5.81,14.72,20.68,11.06,38.48-.52,2.54-.91,4.97-1.18,7.32-5.63-2.61-10.15-8.74-12.62-17.24-.51-1.76-1-3.86-1.51-6.09-1.9-8.22-4.49-19.37-11.83-27.44,5.56,1.27,10.94,2.93,16.09,4.97ZM527.49,203.73c13.15,5.01,16.78,18.27,19.41,29.51-12.52-1.7-25.32-9.8-33.47-21.48-2.15-3.08-4.42-5.93-6.83-8.6,7.18-.35,14.16-.16,20.89.57ZM391.57,349.71c-.31-.46-.62-.95-.92-1.46.27-.27.51-.55.71-.79.65-.79,1.39-1.68,3.13-2.36.48-.19.84-.2,1.33.28.67.66.93,1.67.94,2.21-1.82.33-3.76,1.03-5.2,2.12ZM422.25,360.79c-2.44,3.29-4.48,4.98-6.24,5.17-1.39.15-3.01-.61-4.98-2.32-1.11-.97-1.93-1.76-2.59-2.43-.03-.45.38-1.27,1.19-1.96,1.95-1.65,1.41-3.45,1.2-3.97-.95-2.3-3.21-2.13-5.83-1.93-1.82.14-4.36.34-6.69.05,2-.38,3.54-1.78,4.15-3.78.87-2.84-.24-6.5-2.62-8.71-2.12-1.96-4.87-2.47-7.56-1.41-1.99.78-3.34,1.81-4.27,2.71-.66-2.05-1.19-4.31-1.54-6.81-1.32-9.35,4.41-14.62,16.97-26.15,2.79-2.57,5.96-5.47,9.39-8.75,3.86-3.69,7.12-6.68,10-9.31,11.36-10.4,15.61-14.29,16.81-25.6.96-8.99,7.6-15.19,23.64-30.19,4.49-4.2,9.58-8.96,15.5-14.66.69-.66,1.02-1.61.89-2.56s-.69-1.77-1.53-2.23c-8.89-4.88-12.48-12.83-15.94-20.52-2.21-4.89-4.29-9.52-7.63-13.26-.3-.34-.57-.65-.8-.93,4.39.96,11.96,3.58,15.3,4.74,17.12,5.93,29.65,15.21,39.42,29.21,9.57,13.71,25,23.02,39.87,24.25.16.63.33,1.24.49,1.82,3.25,11.18,9.77,19.06,17.98,21.85-.16,12.46,3.92,22.18,12.54,30.47-1.85,8.63.15,17.1,10.44,27.35-5.84,16.25-1.56,27.64,3.8,34.76.08.11.19.2.28.3-4.15,11.78-3.63,23.47,1.57,34.93.49,1.07,1.56,1.76,2.73,1.76h.03c1.19-.01,2.26-.73,2.72-1.82,3.5-8.2,9.17-14.77,15.17-21.72,4.95-5.73,9.98-11.57,13.86-18.45-3.24,29.31-14.57,59.86-34.1,92.22-.29-.2-.58-.41-.87-.61-3.69-2.47-7.67-4.57-11.85-6.13-2.27-.88-4.63-1.67-6.8-2.77-5.79-2.75-11.11-6.53-15.92-10.9-6.6-6.1-12.22-13.36-17.04-20.99-.85-1.31-1.74-2.77-3.18-3.63-3.9-2.09-6.39,1.49-6.59,4.92-.19,2.38-.13,4.71.06,7.02-5.27-9.79-10.62-19.54-16.51-28.96,6.67-10.7,11.84-22.82,15.75-37.8.42-1.6-.54-3.24-2.15-3.66-1.46-.38-10.63,23.66-17.22,35.81-1.64-2.48-3.33-4.93-5.07-7.35,10.14-22.11,7.31-42.3,5.72-49.63-.21-.94-.84-1.72-1.72-2.11-.88-.39-1.89-.33-2.72.15-14.52,8.45-29.44,13.83-42.73,15.6-3.05-7.15-7.55-13.65-13.6-18.6-1.31-1.01-2.88.85-1.68,1.98,4.45,4.82,7.66,10.85,9.56,17.16-2.15.12-4.24.13-6.27.03-.41-1.29-1.05-2.72-1.97-4.41-2.74-5.05-7.52-8.67-12.79-9.69-4.69-.9-9.39.37-13.24,3.57-3.62,3.01-5.58,6.92-5.68,11.29-.12,5.16,2.44,10.66,6.86,14.7,1.16,1.06,2.24,1.91,3.26,2.59-2.08,1.9-5.72,5.49-9.27,10.28ZM504.38,362.3c-8.55-10.66-19.52-19.98-32.17-25.15,15.02-2.78,28.7-9.17,36.9-13.61,1.2,8.12,1.79,22.71-4.73,38.76ZM432.31,343.5c-3.11-2.84-4.99-6.72-4.91-10.13.06-2.63,1.25-4.92,3.53-6.82,1.95-1.63,4.15-2.46,6.43-2.46.61,0,1.22.06,1.83.18,3.47.67,6.78,3.22,8.65,6.65,1.46,2.7,1.96,4.12,1.73,4.89-.33,1.1-2.15,2.85-4.65,5.28-.64.62-1.34,1.3-2.1,2.04-5.17,4.5-5.97,4.52-10.51.37ZM472.03,372.64c-2.36-3.66-5.26-6.91-8.39-9.82-1.72-1.83-3.62-3.47-5.63-4.85-1.55-1.03-3.22,1.17-1.82,2.38,6.03,5.24,10.55,13.06,10.75,21.1,0,4.94-2.19,10.05-5.5,13.57-4.02,4.07-10.21,4.63-15.68,3.47-.89-.16-1.79-.39-2.7-.64,2.04-5,2.83-10.48,2.17-15.87-.29-2.11-.86-4.36-1.57-6.38-1.3-3.93-3.01-7.72-4.54-11.31-1.36-3.26-2.63-6.41-1.91-9.77.07-.39.07-.75.02-1.08.27-.27.49-.58.63-.92,2.85-.22,5.6-2.02,8.95-4.94.05-.04.09-.08.13-.12.77-.76,1.48-1.44,2.13-2.07,2.63-2.55,4.51-4.47,5.56-6.38,10.84.84,21.27,5.54,29.9,12.11,22.28,17.55,34.26,44.87,48.02,69.22,5.54,9.99,45.5,88.81,57.86,61.57,2.18-9.32-5.1-17.22-11.99-21.95-2.77-1.82-5.76-3.66-8.49-5.54-11.12-7.65-22.7-16.71-27.38-29.78-.52-1.25-.89-3.14-1.23-4.46-.73-4.41-1.71-9.07-1.78-13.58,8.7,13.22,19.73,25.32,34.26,32.22,2.31,1.17,4.84,2.02,7.27,2.97,3.74,1.39,7.28,3.27,10.61,5.49,15.21,9.97,27.58,30.59,18.22,48.26-9.74,18.95-30.16,22.8-47.25,10.78-9.43-6.44-16.62-15.81-23.05-25.15-10.28-15.16-17.59-32.19-23.54-49.47-5.68-15.81-10.36-31.93-14.7-48.21-.54-1.85-3.21-1.19-2.93.64,3.6,20,7.99,40.14,15.34,59.17,1.54,3.96,3.17,7.9,4.89,11.81-1.2,3.41-2.32,6.8-3.39,10.25-.59,1.91-1.17,3.83-1.72,5.75-11.79-15.45-20.38-32.94-25.33-51.82-2.84-10.52-5.27-21.11-8.98-31.45-1.84-5.22-4.08-10.45-7.22-15.19ZM558.43,453.48c2.65,2.06,5.38,4.03,8.15,5.9,2.74,1.88,5.71,3.72,8.49,5.54,4.69,3.24,9.38,7.82,9.8,13.67.03,1.19-.32,2.18-.72,2.58-.28.26-.6.43-1.01.38-2.76-.57-5.35-3.21-7.5-5.27-6.6-6.83-12.02-14.78-17.21-22.8ZM215.69,657.51l-.06-.03s.01,0,.02,0c.01,0,.1.06.04.03ZM441.74,711.58c-1.82-.01-3.63-.09-5.44-.24-30.5-12.15-48.86-30.1-59.16-43.76-8.79-11.65-13.24-22.01-15.13-27.23,4.29-.22,8.53-.76,12.6-1.56,2.47-.37,3.42-3.77,1.47-5.36-1.64-1.43-3.28-2.85-4.88-4.34-1.44-1.3-3.15-2.88-4.85-4.44,5.67,1.72,11.69,2.3,17.59,1.88,3.02-.22,6.04-.62,8.99-1.35,2.15-.35,3.97-1.64,3.35-4.07-2.29-8.35-6.27-15.99-12.26-21,9.79-1.98,14.97-11.82,21.64-18.89,1.15-1.21,1.1-3.13-.13-4.26-3.01-2.8-5.94-5.79-9.18-8.65-4.86-4.27-11.55-9.41-18.88-8.47-1.87.25-3.61.81-5.23,1.6,2.13-3.08,4.21-6.16,5.64-9.78,3.3-9.35-5.2-13.76-12.76-9.52-6.81,3.57-10.37,9.69-14.69,15.5-5.78,7.39-13.25,13.81-22.79,12.87-5.8-.25-10.85-3.6-12.59-9.31-1.82-5.4-.39-12.34,4.68-15.28,2.06-1.23,4.38-2.13,6.78-2.17,1.67-.08,3.39.29,4.93.92,3.73,1.61,6.53,4.89,7.86,8.74.61,1.6,3.06,1.06,2.91-.67-.66-7.9-7.54-14.66-15.64-14.82-13.8-.18-21.7,12.65-17.31,25.23,5.78,16.74,27.02,16.75,38.61,6.06,3.44-2.92,6.34-6.28,9.01-9.8,1.41-1.92,2.93-4.13,4.44-5.91,2.71-3.09,6.1-6.36,9.99-6.69.42,0,.68.1.81.16.1.08.17.1.26.34.09.17.07.5.11.72-.05.25-.05.49-.1.74-.11.41-.26.99-.43,1.37-3.31,7.48-8.64,14.29-10.47,22.87-.28,1.27.98,2.09,1.97,1.76.19-.05.39-.14.56-.29,5.37-4.34,11.58-10.43,18.9-7.8,6.5,2.44,11.29,7.75,16.3,12.62-1.71,1.91-3.39,3.84-5.01,5.72-3.08,3.54-5.56,6.62-9.5,8.42-3.56,1.39-7.1,1.44-10.85,1.47-2.61-.64-5.44-.91-8.52-.72-1.56.08-1.96,2.35-.5,2.95,3.19,1.39,6.28,2.52,9.1,3.93,5.68,2.78,10.25,6.84,13.09,12.57.97,1.92,1.79,3.95,2.5,6.04-4.95.88-10.13.82-15.09.21-6.23-.64-12.07-2.71-18.17-4.07-.42-.1-.86-.04-1.23.19,0,0-.01,0-.02,0-.74.4-1.03,1.32-.63,2.07,2.16,3.98,4.88,7.47,7.86,10.82,1.52,1.71,3.13,3.34,4.8,4.91-12.2,1.72-24.87.24-35.93-5.32-7.27-3.73-14.6-8.96-18.92-15.92-.2-.43-.56-.78-1.02-.9-.02,0-.03-.02-.05-.03-.8-.24-1.64.22-1.88,1.02-.53,1.76-.8,3.43-.95,5.16-.46,5.22.32,10.48,2.12,15.42,1.21,3.47,3.02,6.68,5.22,9.62-18.6-6-28.26-20.9-34.96-40.29-.23-.64-.76-.93-1.31-.97-.12-.02-.24,0-.37,0,0,0,0,0,0,0-.58.06-1.12.4-1.29,1.09-1.66,6.06-3.15,11.93-5.16,17.66-5.28,16.14-15.19,29.88-29.99,38.03-.12-3.7.37-7.31,1.7-10.89,1.19-3.35,2.58-6.56,3.81-9.9,1.29-2.27,2.41-4.62,3.36-7.05.61-1.68-1.78-2.86-2.72-1.27-5.32,9.05-13.23,16.24-21.59,22.36-3.5,2.45-7.38,5.18-11.53,5.78l-.04-.02c-.29-.12-.46-.25-.56-.32.02-.3.14-.57.24-.89,1.21-2.8,3.11-5.32,4.93-8.04,1.4-1.92-.18-4.89-2.61-4.7-10.34.88-17.49-5.51-23.13-13.29,20.35,3.34,35.76-.51,49.85-18.74,8.44-10.89,14.6-23.13,20.37-35.48,4.96-10.68,11.96-26.11,16.85-36.6,2.85-6.04,5.7-12.08,9.14-17.49,5.25-7.91,12.43-14.78,20.82-19.25,16.61-8.42,34.38-4.29,47.93,7.91,18.92,16.54,30.88,40.59,52.95,53.7,1.77.91,3.05-1.36,1.65-2.51-5.3-3.92-10.02-8.5-14.35-13.47-4.32-4.98-8.33-10.27-12.35-15.66-5.3-7.04-11.12-14.04-17.48-20.41,13.67-48.08,56.42-75.15,87.75-94.96,7.54-4.77,14.44-9.14,20.35-13.37.1.42.21.83.31,1.25.67,2.64,1.37,5.26,2.09,7.9-8.98,7.74-19.32,15.86-31.3,25.26l-.89.7c-14.95,11.72-26.23,21.6-34.66,29.61-16.88,16.03-23.06,28.28-21.65,29.16.49.31,1.04.45,1.58.45,1,0,8.47-10.69,27.33-28.18,7.9-7.33,18.09-16.11,31.1-26.31l.89-.7c10.98-8.61,20.7-16.24,29.34-23.59.14.5.27.99.41,1.49,4.35,15.95,10.9,31.57,20.25,45.32,3.08,4.61,6.48,8.98,9.82,13.26.39.5.94.88,1.6,1.05,1.6.42,3.25-.54,3.67-2.14,1.36-5.15,2.89-10.28,4.55-15.37,7.42,15.25,16.63,29.63,28.71,41.61.72.7,1.46,1.38,2.23,2.05-6.04,6.27-12.07,13.07-18.05,20.33-.03.04-.06.07-.09.11-20.42,24.81-40.15,54.9-57.02,87.2-19.38,37.09-32.83,73.15-36.37,97.29ZM483.43,617.07c15.69-30.03,33.85-58.1,52.72-81.7,2.03,5.52,5.68,11,10.48,15.11-.41,4.37-.79,8.6-1.15,12.7-30.42,47.75-49.75,96.16-54.59,136.61-2.88,1.27-5.94,2.53-9.12,3.72.21-.62.38-1.25.49-1.9.53-3.24-.29-6.49-2.31-9.16-1.99-2.63-4.91-4.38-8.22-4.91-3.31-.54-6.64.2-9.35,2.06-2.75,1.89-4.56,4.72-5.08,7.96s.29,6.49,2.31,9.16c.75.99,1.64,1.86,2.63,2.59-4.73,1.01-9.55,1.75-14.37,2.08,3.67-23.47,16.78-58.32,35.59-94.32ZM477.31,700.82c-.3,1.88-1.36,3.52-2.98,4.64-1.65,1.13-3.69,1.58-5.72,1.25-2.04-.33-3.83-1.39-5.03-2.99-1.18-1.57-1.67-3.46-1.36-5.34s1.36-3.52,2.98-4.64c1.3-.89,2.82-1.36,4.41-1.36.44,0,.88.04,1.32.11,2.04.33,3.82,1.39,5.03,2.99,1.18,1.57,1.67,3.46,1.36,5.34ZM714.29,698.64c-2.29-7.21-7.55-15.36-17.9-17.2-15.44-2.74-41.92-1.44-69.94,10.42-1.04.44-2.16.92-3.35,1.43-27.89,11.9-100.91,43.03-170.16,23.69,30.61-3.49,58.17-20.71,63.15-23.97-.81,2.36-2.86,6.1-6.7,9.96-1.41.94-2.78,1.84-3.97,2.66-3.97,2.59-8.04,5.06-12.23,7.27-.58.3-.92.96-.79,1.63.16.82.96,1.36,1.78,1.2,2.49-.49,4.89-1.23,7.24-2.1,11.83-4.34,21.99-12.33,30.31-21.7,3.26-3.77,6.26-7.83,8.94-11.98.66-1,1.59-2.5,2.48-3.82-.18,1.11-.42,2.24-.67,3.36-2.82,11.18-8.49,21.64-17.21,29.53-.54.47-.67,1.28-.29,1.91.36.59,1.05.84,1.69.66.02,0,.03,0,.05-.01.05-.01.09-.03.13-.05.04-.02.09-.03.13-.05,4.08-2.03,8.18-4.16,12.11-6.72,11.42-7.28,19.86-18.49,26.16-30.33,8.94.2,17.75-1.42,26.04-4.5.04,0,.08,0,.12-.01.41-.08.79-.24,1.11-.46,16.14-6.33,30.18-18.23,39.05-33.12,1.6-2.72,3.13-5.85,5.17-8.29,1.78,10.88-5.9,24.29-12.54,32.4,0,0,0,0,0,0-.09.1-.15.22-.22.33-.79,1.26-.55,2.95.64,3.91.98.8,2.32.87,3.36.28,9.84-5.22,15.59-6.81,41.01-4.24,1.1.12,2.17-.39,2.79-1.31,4.44-6.59,9.58-10.91,14.69-13.32.24-.07.47-.17.69-.3,4.79-2.1,9.53-2.57,13.6-1.64-6.18,4.27-11.31,11.32-11.95,16.08-.74,5.51,3.93,6.55,7.34,7.31,2.83.63,6.35,1.42,10.47,3.85,4.78,2.82,8.52,8.55,9.52,14.58.54,3.27.5,7.77-1.84,12.67ZM642.73,627.01c-.23-1.71-.86-3.72-2.12-5.01,6.38-11.06,11.71-21.41,16.49-30.66,9.69-18.79,17.34-33.64,26.32-39.37,4.82-3.08,9.61-3.14,13.12-.16,3.92,3.32,6.44,10.9,2.7,19.72-7.22,17.01-15.42,48.04-16.55,69.73-5.22,2.72-10.35,7.06-14.86,13.31-16.69-1.62-25.29-1.43-32.72.8,1.18-1.95,2.28-3.96,3.26-6.05,3.18-6.9,5.44-14.59,4.36-22.32ZM801.21,605.21c-.11.4-.12.78-.06,1.15-.54,10.48-.57,21.32-.41,32.08.23,15.24-5.49,35.57-22.21,46.91-14.42,9.78-33.85,10.23-56.26,1.32-.06-.55-.13-1.11-.22-1.66-1.3-7.84-6.04-15.03-12.39-18.77-4.94-2.91-9.32-3.89-12.21-4.54-.96-.21-2.1-.47-2.69-.7.55-3.85,7.59-12.28,13.91-14.19,1.11-.34,1.93-1.29,2.1-2.44.17-1.15-.34-2.3-1.31-2.94-5.5-3.64-12.92-4.78-20.58-2.63,1.6-20.35,9.17-49.07,15.9-64.93,4.22-9.95,2.44-20.91-4.34-26.65-5.58-4.72-13.14-4.84-20.22-.32-10.35,6.6-17.93,21.32-28.43,41.68-5.33,10.33-11.36,22.03-18.74,34.5-2.39,2.42-4.21,6.12-5.66,8.44-1.9,3.6-4.22,6.95-6.84,10.11-7.36,9.06-16.84,16.39-27.44,21.08-2.08-11.56-8.33-48.71-10.39-87.37,4.67-3.01,8.71-6.56,12.52-10.23,7.38-7.06,16.88-17.91,23.81-25.52,15.53-16.55,30.71-34.44,51.03-45.09,5.01-2.58,10.31-4.6,15.82-5.7.78-.15,1.31-.89,1.2-1.68-.12-.82-.88-1.39-1.7-1.27-5.9.84-11.63,2.66-17.04,5.08-21.38,10.01-38.2,27.34-53.76,44.64-9.92,10.55-20.35,23.81-32.22,32.64-.22-5.52-.33-11.05-.33-16.5,3.08-2.06,6.26-4.81,9.44-8.47l.34-.39c24.95-28.67,59.12-67.92,96.01-69.65,18.32-.85,31.45,8.31,39.27,16.14,13.28,13.31,21.32,33.13,20.47,50.5-.85,17.49-3.66,29.24-7.28,42.33-17.91,4.01-19.46,6.23-20.37,7.55-.63.91-.87,1.98-.68,3,.04.22.08.59.15,1.08,1.44,11.61,5.02,21.18,10.71,28.58-1.12,5.72-1.88,11.02-2.27,15.78-4.66,4.58-7.22,7.11-6.47,10.41.62,2.75,3.39,4.03,6,4.93.22.08.46.15.7.23,2.16,15.36,11.02,23.46,25.78,23.46.29,0,.59,0,.88,0,16.5-.35,27.94-7.93,34.22-22.59.18-.28.3-.58.38-.9,2.61-6.43,4.27-14.16,4.95-23.21.13-.45.18-.92.09-1.39.03-.51.07-1.02.1-1.54,1.06-20.54,2.89-40.3,11.33-56.15-2.57,10.34-3.92,21.83-4.58,33.81ZM734.42,655.41c11.79,2.62,30.89,4.7,46.55,1.91-5.58,9.1-14.28,13.61-26.38,13.86-11.46.21-17.92-4.81-20.17-15.77ZM847.02,610.87c-.81.55-1.29,1.47-1.3,2.45,0,.98.46,1.9,1.26,2.47,10.05,7.14,13.33,18.22,13.1,21.15-1.29,2.04-11.71,7.78-29.04,9.46-1.01.1-1.91.7-2.38,1.61-.47.9-.44,1.98.06,2.87,4.62,8.08,6.37,13.4,6.74,15.83-4.47-.45-16.97-2.42-30.74-10.75,1.39-5.63,2.09-11.56,2-17.61-.01-.89-.03-1.79-.04-2.68,2.68-.18,5.36-.39,8.01-.72,6.94-.78,13.81-1.95,20.62-3.4,3.41-.73,6.77-1.52,10.16-2.44.75-.21,1.23-.96,1.08-1.73-.16-.82-.97-1.36-1.79-1.18-12.54,2.35-25.37,3.68-38.14,3.63-.03-7.74.08-15.45.46-22.96,3.5-5.13,8.19-9.58,12.73-13.92,4.96-4.79,10.19-9.41,14.01-15.31.42-.66.26-1.54-.37-2.01-.67-.5-1.63-.35-2.12.33-1.93,2.58-4.3,4.9-6.77,7.12-5.5,4.92-11.51,9.28-16.85,14.4,1.37-15.89,4.27-30.45,10.03-41.81.66-1.3.29-2.88-.87-3.75-1.16-.87-2.78-.79-3.85.2-12.39,11.55-18.28,26.44-21.33,42.93-1.23-1.67-2.42-3.38-3.57-5.13-4.58-7.07-8.53-14.58-12-22.28-1.74-3.86-3.39-7.8-4.83-11.75-.26-.76-1.08-1.19-1.85-.95-.79.24-1.24,1.08-1,1.87,1.26,4.18,2.69,8.22,4.23,12.27,4.62,11.96,10.16,23.61,17.77,34.01-.93,7.04-1.46,14.3-1.87,21.67-9.21-4.77-19.08-8.19-28.19-13.04-3.44-1.86-6.75-3.96-9.98-6.22-.64-.45-1.53-.33-2.03.29-.52.65-.41,1.59.24,2.11,3.15,2.52,6.44,4.9,9.88,7.05,9.64,5.96,20.17,10.18,29.67,16.27-.64,7.5-1.93,13.91-3.92,19.24-19.04,4.98-46.48.26-54.97-2.64-.83-.28-1.37-.52-1.72-.69.81-1.11,2.75-3.01,4.5-4.73,2.86-2.81,6.77-6.65,11.08-11.79.54-.64.78-1.47.68-2.3s-.55-1.58-1.23-2.06c-9.58-6.86-15.39-18.02-17.26-33.17,0-.08-.02-.15-.03-.22,1.83-1.09,8.58-3.73,33.46-8.25,1.53-.28,2.59-1.68,2.45-3.23-1.47-15.94,3.19-39.09,5.55-43.57.12-.23.22-.39.29-.5,2.46.92,10,8.87,15.07,14.2.76.81,1.91,1.12,2.98.82,1.07-.3,1.89-1.16,2.13-2.25,2.19-9.97,9.87-26.38,13.13-30.32,2.04,1.45,6.91,9.32,9.35,23.78.18,1.06.92,1.95,1.93,2.32s2.15.17,2.97-.53c8.78-7.46,17.57-12,20.78-13,.61,2.49.9,10.14-4.1,25.36-.35,1.08-.07,2.26.73,3.06.8.8,1.99,1.08,3.07.72,10.69-3.56,19.39-3.63,22.61-3-.77,2.44-3.58,8.35-13.83,20.45-.77.91-.93,2.19-.41,3.25s1.63,1.71,2.82,1.68c15.01-.61,23.06,2.19,25.25,3.72-1.36,2.73-7.59,11.61-24.51,23.27ZM734.67,631.17c.16-1.06.33-2.14.51-3.25.44.4.88.8,1.34,1.19-.63.72-1.25,1.4-1.86,2.06Z"/>
  <path d="M563.36,582.39c5.89,0,10.69-4.63,10.69-10.33s-4.79-10.33-10.69-10.33-10.69,4.63-10.69,10.33,4.79,10.33,10.69,10.33ZM563.36,566.73c3.13,0,5.69,2.39,5.69,5.33s-2.55,5.33-5.69,5.33-5.69-2.39-5.69-5.33,2.55-5.33,5.69-5.33Z"/>
  <path d="M532.65,570.15c5.53,0,10.03-4.35,10.03-9.7s-4.5-9.7-10.03-9.7-10.03,4.35-10.03,9.7,4.5,9.7,10.03,9.7ZM532.65,555.75c2.77,0,5.03,2.11,5.03,4.7s-2.26,4.7-5.03,4.7-5.03-2.11-5.03-4.7,2.26-4.7,5.03-4.7Z"/>
  <path d="M516.81,595.06c5.91,0,10.72-4.65,10.72-10.36s-4.81-10.36-10.72-10.36-10.72,4.65-10.72,10.36,4.81,10.36,10.72,10.36ZM516.81,579.34c3.16,0,5.72,2.41,5.72,5.36s-2.57,5.36-5.72,5.36-5.72-2.41-5.72-5.36,2.57-5.36,5.72-5.36Z"/>
  <path d="M504.3,619.82c6.07,0,11.01-4.77,11.01-10.64s-4.94-10.64-11.01-10.64-11.01,4.77-11.01,10.64,4.94,10.64,11.01,10.64ZM504.3,603.54c3.31,0,6.01,2.53,6.01,5.64s-2.7,5.64-6.01,5.64-6.01-2.53-6.01-5.64,2.7-5.64,6.01-5.64Z"/>
  <path d="M491.79,648.01c6.5,0,11.79-5.11,11.79-11.38s-5.29-11.38-11.79-11.38-11.79,5.11-11.79,11.38,5.29,11.38,11.79,11.38ZM491.79,630.25c3.75,0,6.79,2.86,6.79,6.38s-3.05,6.38-6.79,6.38-6.79-2.86-6.79-6.38,3.05-6.38,6.79-6.38Z"/>
  <path d="M479.91,680.87c6.97,0,12.65-5.47,12.65-12.2s-5.67-12.2-12.65-12.2-12.65,5.47-12.65,12.2,5.67,12.2,12.65,12.2ZM479.91,661.47c4.22,0,7.65,3.23,7.65,7.2s-3.43,7.2-7.65,7.2-7.65-3.23-7.65-7.2,3.43-7.2,7.65-7.2Z"/>
  <path d="M563.36,609.93c6.1,0,11.07-4.8,11.07-10.69s-4.97-10.69-11.07-10.69-11.07,4.8-11.07,10.69,4.97,10.69,11.07,10.69ZM563.36,593.55c3.35,0,6.07,2.55,6.07,5.69s-2.72,5.69-6.07,5.69-6.07-2.55-6.07-5.69,2.72-5.69,6.07-5.69Z"/>
  <path d="M564.4,614.11c-6.2,0-11.25,4.87-11.25,10.87s5.05,10.87,11.25,10.87,11.25-4.88,11.25-10.87-5.05-10.87-11.25-10.87ZM564.4,630.85c-3.45,0-6.25-2.63-6.25-5.87s2.8-5.87,6.25-5.87,6.25,2.63,6.25,5.87-2.8,5.87-6.25,5.87Z"/>
  <path d="M567.01,643.9c-6.36,0-11.53,5-11.53,11.14s5.17,11.14,11.53,11.14,11.53-5,11.53-11.14-5.17-11.14-11.53-11.14ZM567.01,661.18c-3.6,0-6.53-2.75-6.53-6.14s2.93-6.14,6.53-6.14,6.53,2.75,6.53,6.14-2.93,6.14-6.53,6.14Z"/>
  <path d="M456.54,274.45c.39-3.55,1.03-7.04,2.38-10.15.03,1.9.88,3.59,2.22,4.71-.55,0-1.09.18-1.51.61-2.55,3.17,3.87,5.64,6.47,5.71,4.91.35,9.78-2.77,11.63-7.24.91-2.15,1.14-4.68.22-6.77-.28-.7-1.35-.73-1.66-.04-1.48,3.03-3.75,5.35-6.49,6.7.78-1.04,1.25-2.35,1.25-3.76,0-3.42-2.72-6.2-6.07-6.2-.65,0-1.27.11-1.86.3,4.51-4.15,10.79-5.36,17.02-5.9.32-.02.61-.22.74-.53.19-.44-.01-.96-.46-1.15-3.31-1.43-7.05-2.01-10.83-1.64-12.78,1.13-20.15,13.72-17.04,25.68.53,2.2,3.81,1.94,3.99-.33Z"/>
</svg>